<svg width="316" height="11" viewBox="0 0 316 11" fill="none" xmlns="http://www.w3.org/2000/svg">
<path d="M0.666667 5.5C0.666667 8.44552 3.05448 10.8333 6 10.8333C8.94552 10.8333 11.3333 8.44552 11.3333 5.5C11.3333 2.55448 8.94552 0.166667 6 0.166667C3.05448 0.166667 0.666667 2.55448 0.666667 5.5ZM304.667 5.5C304.667 8.44552 307.054 10.8333 310 10.8333C312.946 10.8333 315.333 8.44552 315.333 5.5C315.333 2.55448 312.946 0.166667 310 0.166667C307.054 0.166667 304.667 2.55448 304.667 5.5ZM6 6.5H310V4.5H6V6.5Z" fill="#F0F0F2"/>
</svg>
