<svg width="118" height="5" viewBox="0 0 118 5" fill="none" xmlns="http://www.w3.org/2000/svg">
<path d="M0.414815 2.51123C0.414815 3.3867 1.12453 4.09642 2 4.09642C2.87547 4.09642 3.58519 3.3867 3.58519 2.51123C3.58519 1.63576 2.87547 0.926045 2 0.926045C1.12453 0.926045 0.414815 1.63576 0.414815 2.51123ZM114.415 2.51123C114.415 3.3867 115.125 4.09642 116 4.09642C116.875 4.09642 117.585 3.3867 117.585 2.51123C117.585 1.63576 116.875 0.926045 116 0.926045C115.125 0.926045 114.415 1.63576 114.415 2.51123ZM2 2.80845H116V2.21401H2V2.80845Z" fill="#F0F0F2"/>
</svg>
