<svg width="240" height="12" viewBox="0 0 240 12" fill="none" xmlns="http://www.w3.org/2000/svg">
<path d="M0.166667 6C0.166667 8.94552 2.55448 11.3333 5.5 11.3333C8.44552 11.3333 10.8333 8.94552 10.8333 6C10.8333 3.05448 8.44552 0.666667 5.5 0.666667C2.55448 0.666667 0.166667 3.05448 0.166667 6ZM229.167 6C229.167 8.94552 231.554 11.3333 234.5 11.3333C237.446 11.3333 239.833 8.94552 239.833 6C239.833 3.05448 237.446 0.666667 234.5 0.666667C231.554 0.666667 229.167 3.05448 229.167 6ZM5.5 7H234.5V5H5.5V7Z" fill="#F0F0F2"/>
</svg>
