<svg width="60" height="60" viewBox="0 0 60 60" fill="none" xmlns="http://www.w3.org/2000/svg">
<g clip-path="url(#clip0_3190_1515)">
<path d="M48.1484 21.7589C48.6338 21.7107 48.988 21.2783 48.9398 20.7929C47.9758 11.0807 39.4698 3.46855 29.7232 3.54005C19.2088 3.61659 10.6739 12.2345 10.6976 22.7506C10.7128 29.5184 14.4123 35.9099 20.2656 39.3033C21.1315 39.8057 21.6694 40.7255 21.6694 41.7043V43.9156C19.8569 44.5106 19.2278 46.9053 20.5514 48.3084C19.2275 49.7119 19.8576 52.1065 21.6694 52.701V53.8112C21.6694 55.2719 22.8578 56.4603 24.3185 56.4603H27.8964C29.064 56.4204 29.0663 54.7349 27.8964 54.6942H24.3185C23.8316 54.6942 23.4354 54.2982 23.4354 53.8112V52.8485H36.297V53.8112C36.297 54.2981 35.901 54.6942 35.414 54.6942H31.7453C30.5781 54.7336 30.5752 56.4197 31.7453 56.4603H35.414C36.8747 56.4603 38.0631 55.2719 38.0631 53.8112V52.701C39.8755 52.1061 40.5045 49.7113 39.1811 48.3084C40.505 46.9049 39.8747 44.5102 38.0631 43.9156V41.7091C38.0631 40.7252 38.5915 39.8087 39.442 39.3172C44.7137 36.2718 48.2565 30.8544 48.919 24.8256C48.9722 24.3408 48.6224 23.9047 48.1378 23.8515C47.6533 23.7985 47.2168 24.1479 47.1636 24.6327C46.5623 30.1048 43.3455 35.0227 38.5584 37.7881C37.1635 38.5942 36.297 40.0966 36.297 41.7092V43.7683H23.4354V41.7044C23.4354 40.0982 22.5603 38.5929 21.1515 37.7758C15.8066 34.6769 12.4777 28.9181 12.4636 22.7469C12.4423 13.1997 20.1906 5.37584 29.7361 5.30621C38.7898 5.23975 46.2895 11.9733 47.1826 20.9676C47.2306 21.4528 47.6642 21.8084 48.1484 21.7589ZM37.1938 51.0822C37.1893 51.0821 22.5431 51.0821 22.5384 51.0822C21.2964 51.0219 21.3091 49.2344 22.5517 49.1913H37.1805C38.4242 49.2347 38.435 51.0223 37.1938 51.0822ZM37.1806 47.4253H22.5517C21.3026 47.3811 21.2998 45.5834 22.5475 45.5342C22.5492 45.5342 22.5507 45.5343 22.5523 45.5343H37.18C37.1816 45.5343 37.1832 45.5343 37.1848 45.5342C38.4334 45.5839 38.4287 47.3816 37.1806 47.4253Z" fill="#E0BC85"/>
<path d="M25.0049 18.4265C24.66 18.0818 24.101 18.0818 23.756 18.4265L20.0989 22.0837C19.7542 22.5 19.7542 22.9162 20.0989 23.3326L23.756 26.9896C24.6192 27.7659 25.834 26.6014 25.0049 25.7407L21.972 22.7081L25.0049 19.6753C25.3498 19.3305 25.3498 18.7714 25.0049 18.4265Z" fill="#E0BC85"/>
<path d="M28.8273 26.76L32.4845 19.4457C32.7026 19.0094 32.5257 18.479 32.0897 18.261C31.6532 18.0427 31.1229 18.2197 30.905 18.6558L27.2479 25.9701C26.7692 27.0666 28.2592 27.7553 28.8273 26.76Z" fill="#E0BC85"/>
<path d="M34.7274 26.9896C35.1437 27.3344 35.5599 27.3344 35.9763 26.9896L39.6333 23.3326C39.9782 22.9876 39.9782 22.4287 39.6333 22.0838L35.9763 18.4267C35.6313 18.0817 35.0723 18.0818 34.7274 18.4265C34.3825 18.7715 34.3825 19.3305 34.7274 19.6753L37.7601 22.7082L34.7274 25.7408C34.3827 26.0857 34.3827 26.6447 34.7274 26.9896Z" fill="#E0BC85"/>
<path d="M17.0863 23.8568C16.6047 23.9331 16.2761 24.3856 16.3526 24.8672C19.4944 41.31 43.0899 39.51 43.5495 22.7083C43.6323 11.0796 29.5492 4.69045 20.8643 12.4032C18.3968 14.5602 16.7838 17.5264 16.3222 20.755C16.2532 21.2378 16.5888 21.6852 17.0715 21.7542C17.555 21.8227 18.0015 21.4877 18.0706 21.0049C18.9028 15.1822 23.9738 10.7911 29.866 10.7911C45.6538 11.3903 45.6504 34.0279 29.8659 34.6246C23.9687 34.6246 19.0191 30.4047 18.0968 24.5905C18.0203 24.1091 17.5686 23.7797 17.0863 23.8568Z" fill="#E0BC85"/>
<path d="M59.1235 21.8252H55.4662C54.297 21.8656 54.2978 23.5512 55.4662 23.5912H59.1233C60.2927 23.5508 60.2917 21.8653 59.1235 21.8252Z" fill="#E0BC85"/>
<path d="M52.969 19.1398L55.5549 16.5537C55.8998 16.2089 55.8998 15.6498 55.5548 15.305C55.2101 14.9602 54.651 14.9601 54.306 15.3051L51.7201 17.8911C51.3753 18.236 51.3889 18.7821 51.7202 19.1399C51.9318 19.3684 52.5205 19.5538 52.969 19.1398Z" fill="#E0BC85"/>
<path d="M52.9692 26.2763C52.6243 25.9314 52.0652 25.9313 51.7204 26.2761C51.3754 26.621 51.3754 27.1801 51.7203 27.5249L54.3062 30.111C54.7225 30.4558 55.1387 30.456 55.555 30.1111C55.9 29.7663 55.9 29.2072 55.5551 28.8623L52.9692 26.2763Z" fill="#E0BC85"/>
<path d="M5.41682 22.7083C5.41682 22.2206 5.02158 21.8252 4.53374 21.8252H0.87659C-0.292607 21.8656 -0.291786 23.5512 0.87659 23.5912H4.53374C5.02146 23.5914 5.41682 23.196 5.41682 22.7083Z" fill="#E0BC85"/>
<path d="M5.6938 15.3051C5.34884 14.9601 4.78973 14.9602 4.44501 15.305C4.10005 15.6498 4.10005 16.2089 4.44489 16.5537L7.03084 19.1398C7.44706 19.4846 7.86329 19.4848 8.27962 19.1399C8.62458 18.7951 8.62458 18.236 8.27974 17.8911L5.6938 15.3051Z" fill="#E0BC85"/>
<path d="M7.03084 26.2767L4.44489 28.8627C4.10005 29.2076 4.10005 29.7667 4.44501 30.1115C4.86123 30.4564 5.27757 30.4562 5.6938 30.1114L8.27974 27.5253C8.62458 27.1805 8.62458 26.6214 8.27962 26.2765C7.9349 25.9319 7.3758 25.9318 7.03084 26.2767Z" fill="#E0BC85"/>
</g>
<defs>
<clipPath id="clip0_3190_1515">
<rect width="60" height="60" fill="white"/>
</clipPath>
</defs>
</svg>
