<svg width="16" height="16" viewBox="0 0 16 16" fill="none" xmlns="http://www.w3.org/2000/svg">
<g clip-path="url(#clip0_7001_320)">
<path d="M12.8394 5.80258C12.9689 5.78974 13.0633 5.67443 13.0505 5.545C12.7934 2.95506 10.5251 0.925158 7.92605 0.944225C5.12223 0.964636 2.84624 3.26275 2.85255 6.06705C2.85662 7.87178 3.84314 9.57617 5.40404 10.4811C5.63493 10.6151 5.77837 10.8604 5.77837 11.1213V11.711C5.29505 11.8697 5.12729 12.5083 5.48024 12.8824C5.1272 13.2567 5.29523 13.8953 5.77837 14.0538V14.3499C5.77837 14.7394 6.09528 15.0563 6.4848 15.0563H7.43891C7.75026 15.0457 7.75089 14.5962 7.43891 14.5853H6.4848C6.35496 14.5853 6.24931 14.4797 6.24931 14.3499V14.0931H9.67908V14.3499C9.67908 14.4797 9.57347 14.5853 9.44359 14.5853H8.46529C8.15403 14.5958 8.15325 15.0455 8.46529 15.0563H9.44359C9.83311 15.0563 10.15 14.7394 10.15 14.3499V14.0538C10.6333 13.8952 10.8011 13.2566 10.4482 12.8824C10.8012 12.5082 10.6331 11.8696 10.15 11.711V11.1226C10.15 10.8603 10.2909 10.6159 10.5177 10.4848C11.9235 9.67269 12.8683 8.22804 13.0449 6.62038C13.0591 6.4911 12.9659 6.3748 12.8366 6.36061C12.7074 6.34648 12.591 6.43966 12.5768 6.56893C12.4165 8.02815 11.5587 9.33959 10.2821 10.077C9.91013 10.292 9.67908 10.6926 9.67908 11.1227V11.6717H6.24931V11.1214C6.24931 10.6931 6.01595 10.2916 5.64028 10.0737C4.21497 9.24738 3.32725 7.71171 3.3235 6.06604C3.31781 3.52012 5.38403 1.43377 7.92949 1.4152C10.3438 1.39748 12.3437 3.19308 12.5819 5.59157C12.5947 5.72097 12.7103 5.81577 12.8394 5.80258ZM9.91823 13.6221C9.91701 13.6221 6.01136 13.6221 6.01011 13.6221C5.67891 13.606 5.68229 13.1294 6.01367 13.1179H9.91466C10.2463 13.1295 10.2492 13.6062 9.91823 13.6221ZM9.91469 12.647H6.01367C5.68057 12.6352 5.67982 12.1558 6.01254 12.1427C6.01298 12.1427 6.01339 12.1427 6.01383 12.1427H9.91454C9.91498 12.1427 9.91538 12.1427 9.91582 12.1427C10.2488 12.1559 10.2475 12.6353 9.91469 12.647Z" fill="#E0BC85"/>
<path d="M6.66824 4.91392C6.57625 4.82199 6.42719 4.82199 6.3352 4.91392L5.35996 5.88916C5.26803 6.00018 5.26803 6.11117 5.35996 6.2222L6.3352 7.19741C6.56538 7.40442 6.88932 7.09388 6.66824 6.86437L5.85947 6.05566L6.66824 5.24692C6.7602 5.15497 6.7602 5.00587 6.66824 4.91392Z" fill="#E0BC85"/>
<path d="M7.68729 7.13631L8.66253 5.18583C8.7207 5.06949 8.67353 4.92806 8.55726 4.86992C8.44086 4.81169 8.29945 4.85888 8.24134 4.97519L7.2661 6.92567C7.13845 7.21808 7.53579 7.40171 7.68729 7.13631Z" fill="#E0BC85"/>
<path d="M9.26037 7.19741C9.3714 7.28934 9.48239 7.28934 9.59341 7.19741L10.5686 6.2222C10.6606 6.13022 10.6606 5.98115 10.5686 5.8892L9.59341 4.91395C9.50143 4.82197 9.35236 4.822 9.26037 4.91392C9.16842 5.00591 9.16842 5.15497 9.26037 5.24693L10.0691 6.0557L9.26037 6.8644C9.16845 6.95636 9.16845 7.10543 9.26037 7.19741Z" fill="#E0BC85"/>
<path d="M4.55626 6.36184C4.42783 6.38219 4.34018 6.50284 4.36059 6.63127C5.1984 11.016 11.4905 10.536 11.6131 6.05556C11.6352 2.95458 7.87969 1.2508 5.56373 3.30753C4.90571 3.88274 4.47559 4.67373 4.3525 5.53469C4.33409 5.66344 4.42358 5.78275 4.55229 5.80113C4.68122 5.81941 4.80031 5.73008 4.81872 5.60133C5.04065 4.04859 6.3929 2.87765 7.96418 2.87765C12.1742 3.03744 12.1733 9.07411 7.96415 9.23324C6.39156 9.23324 5.07165 8.10793 4.82572 6.55748C4.80531 6.4291 4.68485 6.34127 4.55626 6.36184Z" fill="#E0BC85"/>
<path d="M15.7662 5.81982H14.7909C14.4791 5.83061 14.4793 6.28008 14.7909 6.29077H15.7661C16.0779 6.27999 16.0777 5.83051 15.7662 5.81982Z" fill="#E0BC85"/>
<path d="M14.1248 5.10379L14.8144 4.41417C14.9063 4.32221 14.9063 4.17312 14.8143 4.08116C14.7224 3.98923 14.5733 3.9892 14.4813 4.08119L13.7917 4.77081C13.6998 4.86276 13.7034 5.00839 13.7918 5.10382C13.8482 5.16474 14.0052 5.21418 14.1248 5.10379Z" fill="#E0BC85"/>
<path d="M14.1251 7.00673C14.0332 6.91477 13.8841 6.91474 13.7921 7.0067C13.7002 7.09865 13.7002 7.24775 13.7921 7.33971L14.4817 8.02932C14.5927 8.12128 14.7037 8.12131 14.8147 8.02935C14.9067 7.9374 14.9067 7.7883 14.8147 7.69634L14.1251 7.00673Z" fill="#E0BC85"/>
<path d="M1.44449 6.05531C1.44449 5.92525 1.33909 5.81982 1.209 5.81982H0.233757C-0.0780285 5.83061 -0.0778097 6.28008 0.233757 6.29077H1.209C1.33906 6.2908 1.44449 6.18537 1.44449 6.05531Z" fill="#E0BC85"/>
<path d="M1.51822 4.08119C1.42623 3.9892 1.27713 3.98923 1.18521 4.08116C1.09322 4.17312 1.09322 4.32221 1.18517 4.41417L1.87476 5.10379C1.98575 5.19574 2.09675 5.19577 2.20777 5.10382C2.29976 5.01186 2.29976 4.86276 2.2078 4.77081L1.51822 4.08119Z" fill="#E0BC85"/>
<path d="M1.87476 7.00719L1.18517 7.69681C1.09322 7.78877 1.09322 7.93786 1.18521 8.02982C1.2962 8.12178 1.40722 8.12174 1.51822 8.02979L2.2078 7.34017C2.29976 7.24821 2.29976 7.09912 2.20777 7.00716C2.11584 6.91527 1.96675 6.91524 1.87476 7.00719Z" fill="#E0BC85"/>
</g>
<defs>
<clipPath id="clip0_7001_320">
<rect width="16" height="16" fill="white"/>
</clipPath>
</defs>
</svg>
