<svg width="16" height="17" viewBox="0 0 16 17" fill="none" xmlns="http://www.w3.org/2000/svg">
<g clip-path="url(#clip0_7001_532)">
<path d="M8 0.51123C3.58882 0.51123 0 4.10005 0 8.51123C0 12.9221 3.58882 16.5112 8 16.5112C12.4109 16.5112 16 12.9221 16 8.51123C16 4.10005 12.4115 0.51123 8 0.51123ZM9.98953 8.79287H8.68799V13.4319H6.75936C6.75936 13.4319 6.75936 10.8971 6.75936 8.79287H5.84258V7.1533H6.75936V6.0928C6.75936 5.33327 7.12028 4.14645 8.70571 4.14645L10.1349 4.15193V5.74349C10.1349 5.74349 9.26641 5.74349 9.09756 5.74349C8.9287 5.74349 8.68863 5.82791 8.68863 6.19011V7.15362H10.1581L9.98953 8.79287Z" fill="#B6BDC7"/>
</g>
<defs>
<clipPath id="clip0_7001_532">
<rect width="16" height="16" fill="white" transform="translate(0 0.51123)"/>
</clipPath>
</defs>
</svg>
