<svg width="151" height="4" viewBox="0 0 151 4" fill="none" xmlns="http://www.w3.org/2000/svg">
<path d="M0.414815 2C0.414815 2.87547 1.12453 3.58519 2 3.58519C2.87547 3.58519 3.58519 2.87547 3.58519 2C3.58519 1.12453 2.87547 0.414815 2 0.414815C1.12453 0.414815 0.414815 1.12453 0.414815 2ZM147.415 2C147.415 2.87547 148.125 3.58519 149 3.58519C149.875 3.58519 150.585 2.87547 150.585 2C150.585 1.12453 149.875 0.414815 149 0.414815C148.125 0.414815 147.415 1.12453 147.415 2ZM2 2.29722H149V1.70278H2V2.29722Z" fill="#F0F0F2"/>
</svg>
