<svg width="403" height="12" viewBox="0 0 403 12" fill="none" xmlns="http://www.w3.org/2000/svg">
<path d="M0.666667 6C0.666667 8.94552 3.05448 11.3333 6 11.3333C8.94552 11.3333 11.3333 8.94552 11.3333 6C11.3333 3.05448 8.94552 0.666667 6 0.666667C3.05448 0.666667 0.666667 3.05448 0.666667 6ZM391.667 6C391.667 8.94552 394.054 11.3333 397 11.3333C399.945 11.3333 402.333 8.94552 402.333 6C402.333 3.05448 399.945 0.666667 397 0.666667C394.054 0.666667 391.667 3.05448 391.667 6ZM6 7H397V5H6V7Z" fill="#F0F0F2"/>
</svg>
