<svg width="16" height="17" viewBox="0 0 16 17" fill="none" xmlns="http://www.w3.org/2000/svg">
<g clip-path="url(#clip0_7001_544)">
<path d="M7.99983 10.1128C8.88245 10.1128 9.60202 9.39448 9.60202 8.51121C9.60202 8.16255 9.48795 7.84063 9.29911 7.57768C9.00813 7.17423 8.53507 6.90967 8.0008 6.90967C7.46619 6.90967 6.99346 7.17391 6.70184 7.57735C6.51236 7.8403 6.39925 8.16223 6.39893 8.51089C6.39796 9.39416 7.11688 10.1128 7.99983 10.1128Z" fill="#B6BDC7"/>
<path d="M11.4972 6.55202V5.20956V5.00977L11.2964 5.01041L9.95459 5.0146L9.95975 6.55718L11.4972 6.55202Z" fill="#B6BDC7"/>
<path d="M8 0.51123C3.58882 0.51123 0 4.10005 0 8.51123C0 12.9221 3.58882 16.5112 8 16.5112C12.4109 16.5112 16 12.9221 16 8.51123C16 4.10005 12.4115 0.51123 8 0.51123ZM12.5497 7.57769V11.3028C12.5497 12.2731 11.7609 13.0616 10.7913 13.0616H5.20873C4.23878 13.0616 3.45025 12.2731 3.45025 11.3028V7.57769V5.72029C3.45025 4.75033 4.23878 3.96181 5.20873 3.96181H10.7909C11.7609 3.96181 12.5497 4.75033 12.5497 5.72029V7.57769Z" fill="#B6BDC7"/>
<path d="M10.4887 8.51117C10.4887 9.88296 9.37244 10.9999 8 10.9999C6.62757 10.9999 5.51165 9.88296 5.51165 8.51117C5.51165 8.1812 5.57738 7.86572 5.69468 7.57764H4.33643V11.3028C4.33643 11.7842 4.72731 12.1741 5.20841 12.1741H10.7906C11.2711 12.1741 11.6626 11.7842 11.6626 11.3028V7.57764H10.3037C10.422 7.86572 10.4887 8.1812 10.4887 8.51117Z" fill="#B6BDC7"/>
</g>
<defs>
<clipPath id="clip0_7001_544">
<rect width="16" height="16" fill="white" transform="translate(0 0.51123)"/>
</clipPath>
</defs>
</svg>
