<svg width="32" height="32" viewBox="0 0 32 32" fill="none" xmlns="http://www.w3.org/2000/svg">
<g clip-path="url(#clip0_7001_8)">
<path d="M15.9994 19.2031C17.7647 19.2031 19.2038 17.7665 19.2038 16C19.2038 15.3026 18.9756 14.6588 18.598 14.1329C18.016 13.326 17.0699 12.7969 16.0013 12.7969C14.9321 12.7969 13.9867 13.3254 13.4034 14.1322C13.0245 14.6581 12.7983 15.302 12.7976 15.9993C12.7957 17.7659 14.2335 19.2031 15.9994 19.2031Z" fill="#71757F"/>
<path d="M22.9938 12.0816V9.39665V8.99707L22.5923 8.99836L19.9087 9.00674L19.919 12.0919L22.9938 12.0816Z" fill="#71757F"/>
<path d="M16 0C7.17764 0 0 7.17764 0 16C0 24.8217 7.17764 32 16 32C24.8217 32 32 24.8217 32 16C32 7.17764 24.823 0 16 0ZM25.0995 14.1329V21.5832C25.0995 23.5237 23.5218 25.1008 21.5825 25.1008H10.4175C8.47756 25.1008 6.90051 23.5237 6.90051 21.5832V14.1329V10.4181C6.90051 8.47821 8.47756 6.90115 10.4175 6.90115H21.5819C23.5218 6.90115 25.0995 8.47821 25.0995 10.4181V14.1329Z" fill="#71757F"/>
<path d="M20.9774 15.9999C20.9774 18.7435 18.7449 20.9772 16 20.9772C13.2551 20.9772 11.0233 18.7435 11.0233 15.9999C11.0233 15.3399 11.1548 14.709 11.3894 14.1328H8.67285V21.5831C8.67285 22.5459 9.45461 23.3258 10.4168 23.3258H21.5813C22.5422 23.3258 23.3252 22.5459 23.3252 21.5831V14.1328H20.6074C20.844 14.709 20.9774 15.3399 20.9774 15.9999Z" fill="#71757F"/>
</g>
<defs>
<clipPath id="clip0_7001_8">
<rect width="32" height="32" fill="white"/>
</clipPath>
</defs>
</svg>
