<svg width="159" height="12" viewBox="0 0 159 12" fill="none" xmlns="http://www.w3.org/2000/svg">
<path d="M0.666667 6C0.666667 8.94552 3.05448 11.3333 6 11.3333C8.94552 11.3333 11.3333 8.94552 11.3333 6C11.3333 3.05448 8.94552 0.666667 6 0.666667C3.05448 0.666667 0.666667 3.05448 0.666667 6ZM147.667 6C147.667 8.94552 150.054 11.3333 153 11.3333C155.946 11.3333 158.333 8.94552 158.333 6C158.333 3.05448 155.946 0.666667 153 0.666667C150.054 0.666667 147.667 3.05448 147.667 6ZM6 7H153V5H6V7Z" fill="#F0F0F2"/>
</svg>
