<svg width="164" height="12" viewBox="0 0 164 12" fill="none" xmlns="http://www.w3.org/2000/svg">
<path d="M0.666667 6C0.666667 8.94552 3.05448 11.3333 6 11.3333C8.94552 11.3333 11.3333 8.94552 11.3333 6C11.3333 3.05448 8.94552 0.666667 6 0.666667C3.05448 0.666667 0.666667 3.05448 0.666667 6ZM152.667 6C152.667 8.94552 155.054 11.3333 158 11.3333C160.946 11.3333 163.333 8.94552 163.333 6C163.333 3.05448 160.946 0.666667 158 0.666667C155.054 0.666667 152.667 3.05448 152.667 6ZM6 7H158V5H6V7Z" fill="#F0F0F2"/>
</svg>
