<svg width="32" height="32" viewBox="0 0 32 32" fill="none" xmlns="http://www.w3.org/2000/svg">
<g clip-path="url(#clip0_7001_26)">
<path d="M18.9155 13.7261C17.546 13.7261 16.9344 14.4788 16.5922 15.0073V13.9091H14.0129C14.0465 14.6361 14.0129 21.6694 14.0129 21.6694H16.5922V17.3339C16.5922 17.1025 16.607 16.8699 16.6766 16.7042C16.8635 16.2402 17.2876 15.7601 18.0004 15.7601C18.9336 15.7601 19.3067 16.4716 19.3067 17.5156V21.6674H21.886L21.8866 17.2173C21.8853 14.8352 20.6125 13.7261 18.9155 13.7261ZM16.5902 15.0344H16.5741C16.5793 15.0254 16.587 15.017 16.5902 15.008V15.0344Z" fill="#71757F"/>
<path d="M10.0044 13.9092H12.5836V21.6694H10.0044V13.9092Z" fill="#71757F"/>
<path d="M16 0C7.17764 0 0 7.17764 0 16C0 24.8217 7.17764 32 16 32C24.8217 32 32 24.8217 32 16C32 7.17764 24.823 0 16 0ZM24.4847 23.2369C24.4847 23.9175 23.9201 24.4679 23.2221 24.4679H8.66898C7.97293 24.4679 7.40772 23.9175 7.40772 23.2369V8.5143C7.40772 7.83437 7.97293 7.28333 8.66898 7.28333H23.2221C23.9194 7.28333 24.4847 7.83501 24.4847 8.5143V23.2369Z" fill="#71757F"/>
<path d="M11.3114 10.168C10.4298 10.168 9.85229 10.7467 9.85229 11.5085C9.85229 12.2529 10.4124 12.849 11.2773 12.849H11.294C12.1937 12.849 12.7538 12.2529 12.7538 11.5085C12.7364 10.7474 12.1944 10.168 11.3114 10.168Z" fill="#71757F"/>
</g>
<defs>
<clipPath id="clip0_7001_26">
<rect width="32" height="32" fill="white"/>
</clipPath>
</defs>
</svg>
