<svg width="16" height="17" viewBox="0 0 16 17" fill="none" xmlns="http://www.w3.org/2000/svg">
<g clip-path="url(#clip0_7001_536)">
<path d="M9.45765 7.37427C8.77288 7.37427 8.46707 7.75065 8.29596 8.01489V7.46578H7.00635C7.0231 7.82927 7.00635 11.3459 7.00635 11.3459H8.29596V9.17818C8.29596 9.0625 8.30337 8.94617 8.33818 8.86335C8.43163 8.63134 8.64366 8.39127 9.00006 8.39127C9.46667 8.39127 9.65325 8.74702 9.65325 9.26905V11.3449H10.9429L10.9432 9.11986C10.9425 7.92885 10.3061 7.37427 9.45765 7.37427ZM8.295 8.02842H8.28694C8.28952 8.02391 8.29339 8.01972 8.295 8.01521V8.02842Z" fill="#B6BDC7"/>
<path d="M5.00195 7.46582H6.29157V11.3459H5.00195V7.46582Z" fill="#B6BDC7"/>
<path d="M8 0.51123C3.58882 0.51123 0 4.10005 0 8.51123C0 12.9221 3.58882 16.5112 8 16.5112C12.4109 16.5112 16 12.9221 16 8.51123C16 4.10005 12.4115 0.51123 8 0.51123ZM12.2423 12.1297C12.2423 12.47 11.96 12.7452 11.6111 12.7452H4.33449C3.98647 12.7452 3.70386 12.47 3.70386 12.1297V4.76838C3.70386 4.42841 3.98647 4.1529 4.33449 4.1529H11.6111C11.9597 4.1529 12.2423 4.42874 12.2423 4.76838V12.1297Z" fill="#B6BDC7"/>
<path d="M5.65583 5.59521C5.215 5.59521 4.92627 5.88459 4.92627 6.26548C4.92627 6.63767 5.2063 6.93574 5.63875 6.93574H5.64713C6.09698 6.93574 6.37701 6.63767 6.37701 6.26548C6.36831 5.88491 6.0973 5.59521 5.65583 5.59521Z" fill="#B6BDC7"/>
</g>
<defs>
<clipPath id="clip0_7001_536">
<rect width="16" height="16" fill="white" transform="translate(0 0.51123)"/>
</clipPath>
</defs>
</svg>
