<svg width="32" height="32" viewBox="0 0 32 32" fill="none" xmlns="http://www.w3.org/2000/svg">
<path d="M7.4399 7.43999C7.72115 7.15909 8.1024 7.00131 8.4999 7.00131C8.8974 7.00131 9.27865 7.15909 9.5599 7.43999L15.9999 13.88L22.4399 7.43999C22.6232 7.24254 22.8565 7.0982 23.1149 7.02217C23.3734 6.94615 23.6477 6.94125 23.9087 7.00799C24.1698 7.07474 24.408 7.21066 24.5983 7.40143C24.7885 7.59221 24.9238 7.83077 24.9899 8.09199C25.0567 8.35275 25.0521 8.62669 24.9764 8.88502C24.9007 9.14334 24.7569 9.37651 24.5599 9.55999L18.1199 16L24.5599 22.44C24.7573 22.6233 24.9017 22.8565 24.9777 23.115C25.0537 23.3735 25.0586 23.6478 24.9919 23.9088C24.9252 24.1699 24.7892 24.4081 24.5985 24.5983C24.4077 24.7886 24.1691 24.9239 23.9079 24.99C23.6471 25.0568 23.3732 25.0522 23.1149 24.9765C22.8566 24.9008 22.6234 24.757 22.4399 24.56L15.9999 18.12L9.5599 24.56C9.27538 24.8248 8.89927 24.969 8.51064 24.9623C8.12201 24.9556 7.75111 24.7985 7.4759 24.524C7.20141 24.2488 7.0443 23.8779 7.03759 23.4893C7.03088 23.1006 7.17508 22.7245 7.4399 22.44L13.8799 16L7.4399 9.55999C7.159 9.27874 7.00122 8.8975 7.00122 8.49999C7.00122 8.10249 7.159 7.72124 7.4399 7.43999Z" fill="#B6BDC7"/>
</svg>
