<svg width="21" height="21" viewBox="0 0 21 21" fill="none" xmlns="http://www.w3.org/2000/svg">
<g clip-path="url(#clip0_7001_385)">
<path d="M13.259 5.95341C13.7975 5.95341 14.2355 5.51532 14.2355 4.97685C14.2355 4.43837 13.7975 4.00024 13.259 4.00024C12.7205 4.00024 12.2824 4.43837 12.2824 4.97685C12.2824 5.19677 12.3555 5.39989 12.4787 5.56333L10.8742 7.80556C10.7784 7.77411 10.6763 7.75685 10.5701 7.75685C10.3135 7.75685 10.0798 7.85649 9.90539 8.01892L8.8359 7.41204C8.85016 7.34579 8.85781 7.27712 8.85781 7.20669C8.85781 6.66821 8.41973 6.23013 7.88125 6.23013C7.34277 6.23013 6.90469 6.66821 6.90469 7.20669C6.90469 7.27712 6.91234 7.34579 6.9266 7.41204L5.85711 8.01892C5.68266 7.85649 5.44898 7.75688 5.19238 7.75688C4.65391 7.75688 4.21582 8.19501 4.21582 8.73349C4.21582 9.27196 4.65391 9.71009 5.19238 9.71009C5.73086 9.71009 6.16895 9.27196 6.16895 8.73349C6.16895 8.66306 6.16129 8.59438 6.14703 8.52813L7.21652 7.92126C7.39098 8.08368 7.62465 8.18333 7.88125 8.18333C8.13785 8.18333 8.37148 8.08368 8.54598 7.9213L9.61547 8.52817C9.60121 8.59442 9.59355 8.6631 9.59355 8.73353C9.59355 9.272 10.0316 9.71013 10.5701 9.71013C11.1086 9.71013 11.5467 9.272 11.5467 8.73353C11.5467 8.51356 11.4736 8.3104 11.3504 8.14696L12.9549 5.90474C13.0506 5.93614 13.1528 5.95341 13.259 5.95341ZM13.259 4.58618C13.4744 4.58618 13.6496 4.76142 13.6496 4.97685C13.6496 5.19224 13.4744 5.36747 13.259 5.36747C13.0436 5.36747 12.8684 5.19224 12.8684 4.97685C12.8683 4.76142 13.0436 4.58618 13.259 4.58618ZM5.19227 9.12407C4.97688 9.12407 4.80164 8.94884 4.80164 8.73341C4.80164 8.51798 4.97688 8.34274 5.19227 8.34274C5.40766 8.34274 5.58289 8.51798 5.58289 8.73341C5.58289 8.94884 5.40766 9.12407 5.19227 9.12407ZM7.88117 7.59731C7.66578 7.59731 7.49055 7.42208 7.49055 7.20665C7.49055 6.99126 7.66578 6.81603 7.88117 6.81603C8.09656 6.81603 8.2718 6.99126 8.2718 7.20665C8.27184 7.42208 8.09656 7.59731 7.88117 7.59731ZM10.5701 9.12407C10.3547 9.12407 10.1795 8.94884 10.1795 8.73341C10.1795 8.51798 10.3547 8.34274 10.5701 8.34274C10.7855 8.34274 10.9607 8.51798 10.9607 8.73341C10.9607 8.94884 10.7855 9.12407 10.5701 9.12407Z" fill="#E0BC85"/>
<path d="M16.8592 15.4809H14.809H3.64172H1.32871C1.19484 15.4809 1.08594 15.372 1.08594 15.2381V3.15146C1.08594 3.0176 1.19484 2.90869 1.32871 2.90869H2.7098C2.8716 2.90869 3.00277 2.77756 3.00277 2.61572C3.00277 2.45389 2.8716 2.32275 2.7098 2.32275H1.32871C0.871758 2.32275 0.5 2.69451 0.5 3.15146V15.2381C0.5 15.6951 0.871758 16.0669 1.32871 16.0669H3.34875V16.7116C3.34875 17.0789 3.64758 17.3778 4.01488 17.3778H6.94746L5.56699 20.073C5.49324 20.217 5.55016 20.3935 5.69418 20.4673C5.73691 20.4892 5.78254 20.4996 5.8275 20.4996C5.93395 20.4996 6.03664 20.4414 6.08848 20.3401L7.60578 17.3778H10.8449L12.3622 20.3401C12.4141 20.4414 12.5168 20.4996 12.6232 20.4996C12.6682 20.4996 12.7138 20.4892 12.7565 20.4673C12.9005 20.3935 12.9575 20.217 12.8837 20.073L11.5032 17.3778H14.4358C14.8031 17.3778 15.102 17.079 15.102 16.7116V16.0669H16.8592C17.021 16.0669 17.1522 15.9357 17.1522 15.7739C17.1522 15.612 17.021 15.4809 16.8592 15.4809ZM14.516 16.7116C14.516 16.7558 14.48 16.7918 14.4358 16.7918H4.01488C3.97066 16.7918 3.93469 16.7558 3.93469 16.7116V16.0669H14.516V16.7116Z" fill="#E0BC85"/>
<path d="M3.88184 2.90827H7.89246H10.5585H17.1221C17.256 2.90827 17.3649 3.01718 17.3649 3.15105V5.93663C17.3649 6.09847 17.4961 6.2296 17.6579 6.2296C17.8196 6.2296 17.9508 6.09847 17.9508 5.93663V3.15105C17.9508 2.69409 17.5791 2.32233 17.1221 2.32233H10.8515V1.74647C10.8515 1.3412 10.5218 1.01147 10.1165 1.01147H8.33453C7.92926 1.01147 7.59949 1.3412 7.59949 1.74647V2.32233H3.88184C3.72004 2.32233 3.58887 2.45347 3.58887 2.6153C3.58887 2.77714 3.72004 2.90827 3.88184 2.90827ZM8.18543 1.74647C8.18543 1.66429 8.2523 1.59741 8.33453 1.59741H10.1165C10.1987 1.59741 10.2656 1.66429 10.2656 1.74647V2.32233H8.18547V1.74647H8.18543Z" fill="#E0BC85"/>
<path d="M4.59766 11.2075C4.43586 11.2075 4.30469 11.3387 4.30469 11.5005V14.0892C4.30469 14.2511 4.43586 14.3822 4.59766 14.3822H5.78621C5.94801 14.3822 6.07918 14.2511 6.07918 14.0892V11.5005C6.07918 11.3387 5.94801 11.2075 5.78621 11.2075H4.59766ZM5.49324 13.7963H4.89062V11.7935H5.49324V13.7963Z" fill="#E0BC85"/>
<path d="M7.28662 9.71094C7.12482 9.71094 6.99365 9.84207 6.99365 10.0039V14.0899C6.99365 14.2517 7.12482 14.3829 7.28662 14.3829H8.47518C8.63697 14.3829 8.76814 14.2517 8.76814 14.0899V10.0039C8.76814 9.84207 8.63697 9.71094 8.47518 9.71094H7.28662ZM8.18225 13.7969H7.57963V10.2969H8.18225V13.7969Z" fill="#E0BC85"/>
<path d="M9.97559 11.2075C9.81379 11.2075 9.68262 11.3387 9.68262 11.5005V14.0892C9.68262 14.2511 9.81379 14.3822 9.97559 14.3822H11.1641C11.3259 14.3822 11.4571 14.2511 11.4571 14.0892V11.5005C11.4571 11.3387 11.3259 11.2075 11.1641 11.2075H9.97559ZM10.8712 13.7963H10.2686V11.7935H10.8712V13.7963Z" fill="#E0BC85"/>
<path d="M12.6646 12.9368C12.5028 12.9368 12.3716 13.0679 12.3716 13.2297V14.0898C12.3716 14.2516 12.5028 14.3827 12.6646 14.3827H13.8531C14.0149 14.3827 14.1461 14.2516 14.1461 14.0898C14.1461 13.9279 14.0149 13.7968 13.8531 13.7968H12.9575V13.2297C12.9575 13.0679 12.8263 12.9368 12.6646 12.9368Z" fill="#E0BC85"/>
<path d="M20.3508 15.7561L18.67 12.845C19.0958 12.3911 19.4059 11.8365 19.5715 11.2184C19.8363 10.2305 19.7004 9.19857 19.189 8.31278C18.1333 6.48415 15.7868 5.85552 13.9583 6.91118C12.1297 7.96685 11.501 10.3134 12.5567 12.1419C13.0681 13.0277 13.8938 13.6613 14.8818 13.9261C15.2117 14.0145 15.5464 14.0582 15.879 14.0582C16.1697 14.0582 16.4588 14.0247 16.7414 13.9586L18.4218 16.8698C18.6278 17.2267 19.0029 17.4265 19.3881 17.4264C19.5769 17.4264 19.7681 17.3784 19.9431 17.2775C20.2867 17.0792 20.5002 16.7093 20.5002 16.3124C20.5002 16.1179 20.4485 15.9256 20.3508 15.7561ZM15.0334 13.3601C14.1967 13.1359 13.4972 12.5992 13.0641 11.849C12.1699 10.3002 12.7025 8.31278 14.2512 7.4186C14.7607 7.12446 15.3174 6.98478 15.8674 6.98478C16.989 6.98478 18.0815 7.56653 18.6815 8.60575C19.1147 9.35599 19.2297 10.23 19.0055 11.0668C18.7813 11.9036 18.2446 12.6029 17.4944 13.0361C16.7442 13.4692 15.8702 13.5842 15.0334 13.3601ZM19.6503 16.77C19.3982 16.9155 19.0747 16.8289 18.9293 16.5769L17.3126 13.776C17.4746 13.7099 17.6333 13.6325 17.7874 13.5435C17.9417 13.4545 18.0878 13.3553 18.2261 13.248L19.8433 16.049C19.8897 16.1295 19.9142 16.2206 19.9142 16.3124C19.9142 16.5006 19.8131 16.676 19.6503 16.77Z" fill="#E0BC85"/>
<path d="M18.529 11.053C18.7358 10.3868 18.6866 9.67347 18.3903 9.04457C18.3213 8.89816 18.1468 8.83543 18.0004 8.90437C17.854 8.97336 17.7912 9.14789 17.8602 9.29425C18.0939 9.79035 18.1327 10.3532 17.9694 10.8792C17.8052 11.4081 17.4504 11.852 16.9705 12.1291C16.4626 12.4224 15.8708 12.5002 15.3044 12.3484C14.7379 12.1966 14.2644 11.8333 13.9712 11.3254C13.3658 10.2769 13.7264 8.93148 14.7748 8.32613C15.5414 7.88359 16.4928 7.94273 17.1987 8.47679C17.3278 8.57445 17.5115 8.54902 17.6091 8.41996C17.7067 8.29093 17.6813 8.10718 17.5522 8.00957C16.658 7.33297 15.4528 7.25808 14.4818 7.81867C13.8384 8.19015 13.3781 8.79 13.1858 9.50765C12.9935 10.2253 13.0922 10.9749 13.4637 11.6184C13.8352 12.2618 14.435 12.7221 15.1527 12.9144C15.3923 12.9786 15.6355 13.0104 15.8771 13.0104C16.3591 13.0104 16.8348 12.884 17.2634 12.6365C17.8715 12.2855 18.3209 11.7232 18.529 11.053Z" fill="#E0BC85"/>
</g>
<defs>
<clipPath id="clip0_7001_385">
<rect width="20" height="20" fill="white" transform="translate(0.5 0.755615)"/>
</clipPath>
</defs>
</svg>
