<svg width="60" height="60" viewBox="0 0 60 60" fill="none" xmlns="http://www.w3.org/2000/svg">
<g clip-path="url(#clip0_5302_1328)">
<path d="M50.2185 21.5986C50.4504 21.5986 50.675 21.5068 50.8413 21.3398L59.7439 12.3976C59.9759 12.1645 60.0585 11.8215 59.9577 11.5084C59.857 11.1954 59.59 10.9646 59.2657 10.9105L54.4799 10.112L54.7777 9.81419C56.0113 8.58055 56.0113 6.57325 54.7777 5.3395C53.5441 4.10598 51.5367 4.10575 50.3029 5.3395L49.991 5.65133L49.2076 0.740475C49.1556 0.414225 48.925 0.144693 48.6105 0.0428575C48.2965 -0.0590956 47.9514 0.0241075 47.7179 0.257779L38.7414 9.24325C38.5413 9.44352 38.4499 9.72782 38.4959 10.0072L38.6177 10.7479C34.8144 8.69493 30.5561 7.61727 26.1914 7.61727C21.1103 7.61727 16.1821 9.07426 11.9399 11.8306C11.5328 12.0951 11.4172 12.6395 11.6817 13.0465C11.8501 13.3056 12.132 13.4466 12.4195 13.4466C12.5836 13.4466 12.7496 13.4007 12.8975 13.3046C16.854 10.7339 21.4509 9.37508 26.1914 9.37508C30.7307 9.37508 35.1458 10.624 38.9869 12.9897L39.5048 16.1376L37.9727 17.6697C34.5395 15.1541 30.4832 13.8282 26.1914 13.8282C15.1741 13.8282 6.21094 22.7914 6.21094 33.8087C6.21094 44.8259 15.1741 53.7891 26.1914 53.7891C37.2087 53.7891 46.1719 44.8259 46.1719 33.8087C46.1719 33.6201 46.1693 33.4322 46.1641 33.2448C46.1509 32.7596 45.7502 32.377 45.2614 32.3902C44.7762 32.4035 44.3938 32.8077 44.407 33.2929C44.4117 33.4643 44.4142 33.6362 44.4142 33.8086C44.4142 43.8566 36.2395 52.0312 26.1915 52.0312C16.1435 52.0312 7.96875 43.8567 7.96875 33.8087C7.96875 23.7607 16.1434 15.586 26.1914 15.586C30.0135 15.586 33.6304 16.7391 36.7134 18.9291L33.5019 22.1407C31.3126 20.765 28.8014 20.0391 26.1914 20.0391C18.5988 20.0391 12.4219 26.2161 12.4219 33.8087C12.4219 34.7195 12.5115 35.6304 12.688 36.5159C12.9001 37.6418 14.6505 37.284 14.412 36.172C14.2579 35.3995 14.1797 34.6044 14.1797 33.8087C14.1797 27.1854 19.5681 21.797 26.1914 21.797C28.3322 21.797 30.3964 22.3563 32.2226 23.42L28.8018 26.8408C27.9697 26.5282 27.0948 26.3673 26.1914 26.3673C22.0882 26.3673 18.75 29.7055 18.75 33.8087C18.75 37.9119 22.0882 41.2501 26.1914 41.2501C30.2946 41.2501 33.6328 37.9119 33.6328 33.8087C33.6328 32.9688 33.4931 32.1516 33.2216 31.3704L36.6656 27.9263C37.6734 29.7161 38.2031 31.7304 38.2031 33.8087C38.2031 40.432 32.8147 45.8204 26.1914 45.8204C21.8324 45.8204 17.8155 43.4783 15.7086 39.708C15.4718 39.2841 14.9361 39.1327 14.5127 39.3696C14.089 39.6064 13.9375 40.1418 14.1742 40.5656C16.5914 44.8912 21.1962 47.5782 26.1914 47.5782C33.784 47.5782 39.9609 41.4013 39.9609 33.8087C39.9609 31.2616 39.2664 28.798 37.9495 26.6424L41.1679 23.4241C42.4548 25.2729 43.3741 27.3163 43.9048 29.5119C44.002 29.9144 44.3618 30.1845 44.7584 30.1845C44.8267 30.1845 44.8962 30.1765 44.9655 30.1597C45.4373 30.0457 45.7274 29.5707 45.6134 29.0989C45.0064 26.5876 43.935 24.2588 42.4279 22.164L44.0041 20.5877L47.0576 21.0902C49.3925 24.9129 50.625 29.3014 50.625 33.8087C50.625 47.2815 39.6642 58.2423 26.1914 58.2423C12.7186 58.2423 1.75781 47.2815 1.75781 33.8087C1.75781 26.8965 4.70566 20.277 9.84551 15.6477C10.2061 15.3228 10.2352 14.7671 9.91043 14.4064C9.58535 14.0456 9.02953 14.0168 8.66906 14.3416C3.15973 19.3037 0 26.3991 0 33.8087C0 40.8047 2.72437 47.3819 7.67133 52.3289C12.6182 57.2757 19.1954 60.0001 26.1914 60.0001C33.1874 60.0001 39.7646 57.2757 44.7115 52.3289C49.6584 47.3819 52.3828 40.8047 52.3828 33.8087C52.3828 29.4745 51.3192 25.2423 49.2929 21.4581L50.0757 21.5868C50.1234 21.5947 50.1711 21.5986 50.2185 21.5986ZM57.2968 12.3642L55.2578 14.4123L50.9054 13.6865L52.9526 11.6394L57.2968 12.3642ZM51.546 6.58262C51.8201 6.30852 52.1802 6.17141 52.5402 6.17141C52.9003 6.17141 53.2604 6.3084 53.5345 6.58262C54.0829 7.13094 54.0829 8.02309 53.5345 8.57141L27.5556 34.5505C27.0073 35.0989 26.115 35.0987 25.5669 34.5505C25.0186 34.0022 25.0186 33.11 25.5669 32.5617L51.546 6.58262ZM47.7434 2.71965L48.456 7.18661L46.4062 9.23633L45.6663 4.7988L47.7434 2.71965ZM40.3038 10.1667L44.1393 6.32751L44.8789 10.7638L41.0346 14.6081L40.3038 10.1667ZM31.875 33.8087C31.875 36.9426 29.3254 39.4923 26.1914 39.4923C23.0575 39.4923 20.5078 36.9426 20.5078 33.8087C20.5078 30.6747 23.0575 28.1251 26.1914 28.1251C26.5996 28.1251 26.9999 28.1684 27.3905 28.2521L24.3239 31.3187C23.0903 32.5523 23.0903 34.5596 24.3239 35.7934C24.9408 36.4102 25.751 36.7187 26.5614 36.7187C27.3716 36.7187 28.1818 36.4102 28.7987 35.7934L31.7857 32.8064C31.8439 33.1346 31.875 33.4691 31.875 33.8087ZM45.5339 19.0581L49.378 15.214L53.7361 15.9406L49.9148 19.779L45.5339 19.0581Z" fill="#E0BC85"/>
</g>
<defs>
<clipPath id="clip0_5302_1328">
<rect width="60" height="60" fill="white"/>
</clipPath>
</defs>
</svg>
