<svg width="60" height="60" viewBox="0 0 60 60" fill="none" xmlns="http://www.w3.org/2000/svg">
<g clip-path="url(#clip0_5302_1304)">
<path d="M59.3003 26.4216L53.7091 25.257C53.5064 24.2374 53.2376 23.2305 52.9066 22.2512L57.1641 18.4488C57.4745 18.1716 57.5479 17.7143 57.3397 17.3538L54.6218 12.6462C54.4137 12.2857 53.9815 12.1202 53.5856 12.2509L48.1567 14.0392C47.4731 13.2623 46.7378 12.527 45.9609 11.8434L47.7492 6.41449C47.8795 6.0191 47.7144 5.58656 47.3539 5.37832L42.6463 2.66039C42.2857 2.4525 41.8287 2.52539 41.5513 2.83605L37.749 7.09336C36.7698 6.76254 35.7629 6.49383 34.7434 6.29086L33.5787 0.699727C33.4936 0.292031 33.1343 0 32.7179 0H27.282C26.8656 0 26.5064 0.292031 26.4214 0.699727L25.2567 6.29086C24.2372 6.49371 23.2303 6.76242 22.2511 7.09336L18.4488 2.83594C18.1714 2.52539 17.7143 2.4525 17.3538 2.66027L12.6462 5.3782C12.2857 5.58633 12.1206 6.01898 12.2509 6.41437L14.0392 11.8433C13.2623 12.5269 12.527 13.2622 11.8434 14.0391L6.41449 12.2508C6.01887 12.12 5.58645 12.2856 5.37832 12.6461L2.66039 17.3537C2.45227 17.7142 2.52562 18.1714 2.83605 18.4487L7.09336 22.251C6.76254 23.2303 6.49371 24.2372 6.29086 25.2567L0.699727 26.4213C0.292031 26.5064 0 26.8657 0 27.2821V32.718C0 33.1344 0.292031 33.4936 0.699727 33.5786L6.29086 34.7432C6.49359 35.7627 6.76242 36.7696 7.09336 37.7489L2.83594 41.5512C2.52551 41.8284 2.45215 42.2857 2.66027 42.6462L5.3782 47.3538C5.58645 47.7144 6.01863 47.8798 6.41437 47.7491L11.8433 45.9608C12.5269 46.7377 13.2622 47.473 14.0391 48.1566L12.2508 53.5855C12.1205 53.9809 12.2856 54.4134 12.6461 54.6217L17.3537 57.3396C17.7139 57.5475 18.1712 57.4745 18.4487 57.1639L22.251 52.9066C23.2302 53.2375 24.2371 53.5062 25.2566 53.7091L26.4213 59.3003C26.5063 59.708 26.8655 60 27.2818 60H32.7178C33.1342 60 33.4934 59.708 33.5783 59.3003L34.743 53.7091C35.7626 53.5063 36.7695 53.2376 37.7487 52.9066L41.5512 57.1641C41.8287 57.4747 42.2859 57.5477 42.6462 57.3397L47.3538 54.6218C47.7143 54.4137 47.8794 53.981 47.7491 53.5856L45.9608 48.1567C46.7377 47.4731 47.473 46.7378 48.1566 45.9609L53.5855 47.7492C53.9811 47.8798 54.4136 47.7143 54.6217 47.3539L57.3396 42.6463C57.5477 42.2858 57.4744 41.8286 57.1639 41.5513L52.9066 37.749C53.2375 36.7697 53.5063 35.7628 53.7091 34.7433L59.3003 33.5787C59.708 33.4937 60 33.1345 60 32.7182V27.2822C60 26.8657 59.708 26.5064 59.3003 26.4216ZM58.2422 32.0033L52.7739 33.1425C52.4208 33.2161 52.1486 33.4977 52.0871 33.8529C51.8592 35.1688 51.5127 36.4666 51.0571 37.7102C50.9332 38.0484 51.0282 38.428 51.297 38.668L55.46 42.3863L53.4567 45.8561L48.1479 44.1074C47.8057 43.9945 47.43 44.1021 47.1989 44.3781C46.346 45.397 45.3969 46.3461 44.378 47.199C44.102 47.43 43.9946 47.8061 44.1073 48.148L45.8559 53.4568L42.3861 55.4602L38.6679 51.2971C38.428 51.0284 38.0484 50.9334 37.7101 51.0572C36.4665 51.5128 35.1687 51.8593 33.8529 52.0873C33.4977 52.1488 33.216 52.421 33.1425 52.774L32.0033 58.2422H27.9968L26.8575 52.7739C26.7839 52.4208 26.5023 52.1487 26.1471 52.0871C24.8312 51.8592 23.5335 51.5127 22.2899 51.0571C21.9513 50.9333 21.572 51.0282 21.3321 51.297L17.6139 55.46L14.1441 53.4567L15.8927 48.1479C16.0055 47.8059 15.8981 47.4299 15.622 47.1989C14.6031 46.346 13.654 45.3969 12.8011 44.378C12.5701 44.102 12.1939 43.9946 11.8521 44.1073L6.54328 45.8559L4.53996 42.3861L8.70305 38.6679C8.97176 38.4279 9.0668 38.0483 8.94293 37.7101C8.4873 36.4665 8.14078 35.1687 7.91285 33.8528C7.85145 33.4976 7.5791 33.2159 7.22613 33.1424L1.75781 32.0033V27.9968L7.22613 26.8576C7.57922 26.784 7.85145 26.5024 7.91285 26.1472C8.14078 24.8313 8.4873 23.5335 8.94293 22.2899C9.0668 21.9517 8.97176 21.5721 8.70305 21.3321L4.53996 17.6139L6.54328 14.1441L11.8521 15.8927C12.1945 16.0059 12.5701 15.8981 12.8011 15.622C13.654 14.6031 14.6031 13.654 15.622 12.8011C15.898 12.5701 16.0054 12.1941 15.8927 11.8521L14.1441 6.54328L17.6139 4.53996L21.3321 8.70305C21.572 8.97164 21.9513 9.06645 22.2899 8.94293C23.5335 8.4873 24.8313 8.14078 26.1471 7.91285C26.5023 7.85133 26.784 7.5791 26.8575 7.22613L27.9967 1.75781H32.0032L33.1425 7.22613C33.2161 7.57922 33.4977 7.85133 33.8529 7.91285C35.1688 8.14078 36.4665 8.4873 37.7101 8.94293C38.0484 9.06645 38.428 8.97164 38.6679 8.70305L42.3861 4.53996L45.8559 6.54328L44.1073 11.8521C43.9945 12.1941 44.1019 12.5701 44.378 12.8011C45.3969 13.654 46.346 14.6031 47.1989 15.622C47.4299 15.898 47.8061 16.0054 48.1479 15.8927L53.4567 14.1441L55.46 17.6139L51.297 21.3321C51.0282 21.5721 50.9332 21.9517 51.0571 22.2899C51.5127 23.5335 51.8592 24.8313 52.0871 26.1472C52.1486 26.5024 52.4209 26.7841 52.7739 26.8576L58.2422 27.9967V32.0033Z" fill="#E0BC85"/>
<path d="M50.4118 30.0001C50.4118 25.335 48.7978 20.7747 45.8669 17.1596C45.5612 16.7824 45.0076 16.7247 44.6307 17.0303C44.2536 17.3359 44.1957 17.8895 44.5013 18.2665C47.1792 21.5697 48.654 25.7367 48.654 30.0001C48.654 31.624 48.4449 33.1997 48.0532 34.7026C47.372 33.0002 45.838 31.7288 43.9815 31.4199C45.0501 30.3635 45.7136 28.8982 45.7136 27.2805C45.7136 24.0692 43.1011 21.4567 39.8899 21.4567C38.2339 21.4567 36.7383 22.1525 35.6769 23.2659C35.0863 20.6761 32.7661 18.737 30 18.737C27.2339 18.737 24.9137 20.6761 24.3231 23.2659C23.2617 22.1526 21.766 21.4567 20.1101 21.4567C16.8989 21.4567 14.2863 24.0692 14.2863 27.2805C14.2863 28.8983 14.9498 30.3636 16.0185 31.4199C14.1621 31.7288 12.628 33.0002 11.9468 34.7026C11.5553 33.1998 11.3462 31.624 11.3462 30.0001C11.3462 19.7143 19.7142 11.3462 30.0001 11.3462C34.2635 11.3462 38.4305 12.821 41.7337 15.4988C42.1108 15.8045 42.6642 15.7466 42.9699 15.3695C43.2756 14.9925 43.2177 14.439 42.8406 14.1333C39.2254 11.2025 34.6652 9.58838 30.0001 9.58838C18.7451 9.58838 9.58838 18.7451 9.58838 30.0001C9.58838 33.2119 10.3351 36.2522 11.6624 38.9583C11.6666 38.9666 11.6703 38.975 11.6748 38.9831C15.0035 45.7462 21.9667 50.4118 30.0001 50.4118C38.0335 50.4118 44.9967 45.7463 48.3254 38.9831C48.3299 38.9749 48.3336 38.9663 48.3378 38.9581C49.6651 36.2522 50.4118 33.2119 50.4118 30.0001ZM39.89 23.2144C42.132 23.2144 43.956 25.0384 43.956 27.2804C43.956 29.5224 42.132 31.3463 39.89 31.3463C37.648 31.3463 35.824 29.5224 35.824 27.2804C35.824 25.0384 37.648 23.2144 39.89 23.2144ZM30.0001 20.4947C32.2421 20.4947 34.066 22.3187 34.066 24.5607C34.066 26.8028 32.2421 28.6267 30.0001 28.6267C27.7581 28.6267 25.9342 26.8028 25.9342 24.5607C25.9342 22.3187 27.7581 20.4947 30.0001 20.4947ZM20.1102 23.2144C22.3522 23.2144 24.1762 25.0384 24.1762 27.2804C24.1762 29.5224 22.3522 31.3463 20.1102 31.3463C17.8681 31.3463 16.0442 29.5224 16.0442 27.2804C16.0442 25.0384 17.8683 23.2144 20.1102 23.2144ZM27.1704 48.4397V36.3049C27.1704 35.8194 26.777 35.426 26.2915 35.426C25.806 35.426 25.4126 35.8194 25.4126 36.3049V48.0825C24.6609 47.8917 23.9273 47.6553 23.2149 47.3762V40.6114C23.2149 40.1259 22.8215 39.7325 22.336 39.7325C21.8505 39.7325 21.4571 40.1259 21.4571 40.6114V46.5795C19.9302 45.7896 18.5262 44.7943 17.2804 43.6312V38.7773C17.2804 38.2918 16.8871 37.8984 16.4015 37.8984C15.916 37.8984 15.5226 38.2918 15.5226 38.7773V41.749C14.6734 40.7045 13.9347 39.5667 13.3246 38.3536V36.6758C13.3246 34.7063 14.9267 33.1042 16.8961 33.1042H21.526C21.4813 33.3818 21.4571 33.6662 21.4571 33.9562V36.5097C21.4571 36.9953 21.8505 37.3887 22.336 37.3887C22.8215 37.3887 23.2149 36.9953 23.2149 36.5097V33.9562C23.2149 31.9867 24.8168 30.3845 26.7858 30.3845H33.2146C35.1835 30.3845 36.7854 31.9868 36.7854 33.9562V40.282C36.7854 40.7675 37.1788 41.1609 37.6643 41.1609C38.1498 41.1609 38.5432 40.7675 38.5432 40.282V33.9562C38.5432 33.6662 38.519 33.3818 38.4743 33.1042H43.1042C45.0736 33.1042 46.6758 34.7063 46.6758 36.6758V38.3536C46.0656 39.5667 45.3269 40.7045 44.4777 41.749V38.7773C44.4777 38.2918 44.0843 37.8984 43.5988 37.8984C43.1133 37.8984 42.7199 38.2918 42.7199 38.7773V43.6312C41.4743 44.7943 40.0703 45.7895 38.5432 46.5795V44.3837C38.5432 43.8982 38.1498 43.5048 37.6643 43.5048C37.1788 43.5048 36.7854 43.8982 36.7854 44.3837V47.3762C36.073 47.6553 35.3394 47.8917 34.5878 48.0825V36.3049C34.5878 35.8194 34.1944 35.426 33.7088 35.426C33.2233 35.426 32.8299 35.8194 32.8299 36.3049V48.4397C31.907 48.5808 30.962 48.654 30.0002 48.654C29.0385 48.654 28.0933 48.5808 27.1704 48.4397Z" fill="#E0BC85"/>
</g>
<defs>
<clipPath id="clip0_5302_1304">
<rect width="60" height="60" fill="white"/>
</clipPath>
</defs>
</svg>
