<svg width="21" height="21" viewBox="0 0 21 21" fill="none" xmlns="http://www.w3.org/2000/svg">
<g clip-path="url(#clip0_7001_376)">
<path d="M20.2668 9.5628L18.403 9.1746C18.3355 8.83476 18.2459 8.49913 18.1355 8.17269L19.5547 6.90522C19.6582 6.8128 19.6826 6.66038 19.6132 6.54022L18.7073 4.97101C18.6379 4.85085 18.4938 4.79569 18.3619 4.83925L16.5522 5.43534C16.3244 5.1764 16.0793 4.93128 15.8203 4.70343L16.4164 2.89378C16.4598 2.76198 16.4048 2.6178 16.2846 2.54839L14.7154 1.64241C14.5952 1.57312 14.4429 1.59741 14.3504 1.70097L13.083 3.12007C12.7566 3.00979 12.421 2.92022 12.0811 2.85257L11.6929 0.988857C11.6645 0.852959 11.5448 0.755615 11.406 0.755615H9.59398C9.4552 0.755615 9.33547 0.852959 9.30715 0.988857L8.91891 2.85257C8.57906 2.92019 8.24344 3.00976 7.91703 3.12007L6.64961 1.70093C6.55715 1.59741 6.40477 1.57312 6.28461 1.64237L4.71539 2.54835C4.59523 2.61772 4.5402 2.76194 4.58363 2.89374L5.17973 4.70339C4.92078 4.93124 4.67566 5.17636 4.44781 5.4353L2.63816 4.83921C2.50629 4.79562 2.36215 4.85081 2.29277 4.97097L1.3868 6.54019C1.31742 6.66034 1.34188 6.81276 1.44535 6.90519L2.86445 8.17261C2.75418 8.49905 2.66457 8.83468 2.59695 9.17452L0.733242 9.56272C0.597344 9.59108 0.5 9.71085 0.5 9.84964V11.6616C0.5 11.8004 0.597344 11.9201 0.733242 11.9485L2.59695 12.3367C2.66453 12.6765 2.75414 13.0121 2.86445 13.3386L1.44531 14.606C1.34184 14.6984 1.31738 14.8508 1.38676 14.971L2.29273 16.5402C2.36215 16.6604 2.50621 16.7155 2.63813 16.672L4.44777 16.0759C4.67563 16.3348 4.92074 16.58 5.17969 16.8078L4.58359 18.6175C4.54016 18.7492 4.5952 18.8934 4.71535 18.9628L6.28457 19.8688C6.40465 19.9381 6.55707 19.9138 6.64957 19.8103L7.91699 18.3912C8.2434 18.5014 8.57902 18.591 8.91887 18.6587L9.30711 20.5224C9.33543 20.6583 9.45516 20.7556 9.59395 20.7556H11.4059C11.5447 20.7556 11.6645 20.6583 11.6928 20.5224L12.081 18.6587C12.4209 18.591 12.7565 18.5015 13.0829 18.3912L14.3504 19.8103C14.4429 19.9139 14.5953 19.9382 14.7154 19.8689L16.2846 18.9629C16.4048 18.8935 16.4598 18.7493 16.4164 18.6175L15.8203 16.8078C16.0792 16.58 16.3243 16.3349 16.5522 16.0759L18.3618 16.672C18.4937 16.7155 18.6379 16.6604 18.7072 16.5403L19.6132 14.971C19.6826 14.8509 19.6581 14.6985 19.5546 14.606L18.1355 13.3386C18.2458 13.0122 18.3354 12.6766 18.403 12.3367L20.2668 11.9485C20.4027 11.9202 20.5 11.8005 20.5 11.6617V9.84968C20.5 9.71085 20.4027 9.59108 20.2668 9.5628ZM19.9141 11.4234L18.0913 11.8031C17.9736 11.8276 17.8829 11.9215 17.8624 12.0399C17.7864 12.4785 17.6709 12.9112 17.519 13.3257C17.4777 13.4384 17.5094 13.565 17.599 13.645L18.9867 14.8844L18.3189 16.041L16.5493 15.4581C16.4352 15.4205 16.31 15.4563 16.233 15.5483C15.9487 15.888 15.6323 16.2043 15.2927 16.4886C15.2007 16.5656 15.1649 16.691 15.2024 16.805L15.7853 18.5746L14.6287 19.2423L13.3893 17.8546C13.3093 17.7651 13.1828 17.7334 13.07 17.7747C12.6555 17.9266 12.2229 18.0421 11.7843 18.118C11.6659 18.1385 11.572 18.2293 11.5475 18.3469L11.1678 20.1697H9.83227L9.4525 18.3469C9.42797 18.2292 9.3341 18.1385 9.2157 18.118C8.77707 18.042 8.34449 17.9265 7.92996 17.7746C7.81711 17.7334 7.69066 17.765 7.6107 17.8546L6.37129 19.2423L5.21469 18.5745L5.79758 16.8049C5.83516 16.6909 5.79937 16.5656 5.70734 16.4886C5.3677 16.2043 5.05133 15.8879 4.76703 15.5483C4.69004 15.4563 4.56465 15.4205 4.4507 15.458L2.68109 16.0409L2.01332 14.8843L3.40102 13.6449C3.49059 13.5649 3.52227 13.4384 3.48098 13.3257C3.3291 12.9111 3.21359 12.4785 3.13762 12.0399C3.11715 11.9215 3.02637 11.8276 2.90871 11.8031L1.08594 11.4234V10.0879L2.90871 9.70815C3.02641 9.68362 3.11715 9.58976 3.13762 9.47136C3.21359 9.03272 3.3291 8.60011 3.48098 8.18558C3.52227 8.07284 3.49059 7.94632 3.40102 7.86632L2.01332 6.6269L2.68109 5.4703L4.4507 6.05319C4.56484 6.09093 4.69004 6.05499 4.76703 5.96296C5.05133 5.62331 5.3677 5.30694 5.70734 5.02265C5.79934 4.94565 5.83512 4.8203 5.79758 4.70632L5.21469 2.93671L6.37129 2.26894L7.6107 3.65663C7.69066 3.74616 7.81711 3.77776 7.92996 3.73659C8.34449 3.58472 8.77711 3.46921 9.2157 3.39323C9.3341 3.37272 9.42801 3.28198 9.4525 3.16433L9.83223 1.34155H11.1677L11.5475 3.16433C11.572 3.28202 11.6659 3.37272 11.7843 3.39323C12.2229 3.46921 12.6555 3.58472 13.07 3.73659C13.1828 3.77776 13.3093 3.74616 13.3893 3.65663L14.6287 2.26894L15.7853 2.93671L15.2024 4.70632C15.1648 4.8203 15.2006 4.94565 15.2927 5.02265C15.6323 5.30694 15.9487 5.62331 16.233 5.96296C16.31 6.05495 16.4354 6.09073 16.5493 6.05319L18.3189 5.4703L18.9867 6.6269L17.599 7.86632C17.5094 7.94632 17.4777 8.07284 17.519 8.18558C17.6709 8.60011 17.7864 9.03272 17.8624 9.47136C17.8829 9.58976 17.9736 9.68366 18.0913 9.70815L19.9141 10.0878V11.4234Z" fill="#E0BC85"/>
<path d="M17.3041 10.7556C17.3041 9.20053 16.7661 7.68045 15.7891 6.47541C15.6872 6.34967 15.5027 6.33045 15.3771 6.43229C15.2514 6.53416 15.2321 6.71869 15.3339 6.84436C16.2266 7.94545 16.7182 9.33443 16.7182 10.7556C16.7182 11.2969 16.6485 11.8221 16.5179 12.3231C16.2908 11.7556 15.7795 11.3318 15.1607 11.2288C15.5169 10.8767 15.738 10.3883 15.738 9.84904C15.738 8.77861 14.8672 7.90775 13.7968 7.90775C13.2448 7.90775 12.7462 8.13971 12.3925 8.51084C12.1956 7.64756 11.4222 7.00119 10.5002 7.00119C9.57812 7.00119 8.80473 7.64756 8.60785 8.51084C8.25406 8.13975 7.75551 7.90775 7.20352 7.90775C6.13312 7.90775 5.26227 8.77861 5.26227 9.84904C5.26227 10.3883 5.48344 10.8767 5.83965 11.2288C5.22086 11.3318 4.70949 11.7556 4.48242 12.3231C4.35191 11.8221 4.28223 11.2969 4.28223 10.7556C4.28223 7.32697 7.07156 4.5376 10.5002 4.5376C11.9213 4.5376 13.3103 5.0292 14.4114 5.92182C14.5371 6.02369 14.7216 6.00439 14.8235 5.87869C14.9254 5.75303 14.9061 5.56854 14.7804 5.46662C13.5753 4.48971 12.0552 3.95166 10.5002 3.95166C6.74852 3.95166 3.69629 7.00389 3.69629 10.7556C3.69629 11.8262 3.9452 12.8396 4.38762 13.7416C4.38902 13.7444 4.39027 13.7472 4.39176 13.7499C5.50133 16.0043 7.82238 17.5595 10.5002 17.5595C13.178 17.5595 15.4991 16.0043 16.6086 13.7499C16.6101 13.7472 16.6114 13.7443 16.6128 13.7416C17.0552 12.8396 17.3041 11.8262 17.3041 10.7556ZM13.7968 8.49365C14.5442 8.49365 15.1521 9.10166 15.1521 9.849C15.1521 10.5963 14.5442 11.2043 13.7968 11.2043C13.0495 11.2043 12.4415 10.5963 12.4415 9.849C12.4415 9.10166 13.0495 8.49365 13.7968 8.49365ZM10.5002 7.58709C11.2475 7.58709 11.8555 8.1951 11.8555 8.94244C11.8555 9.68979 11.2475 10.2978 10.5002 10.2978C9.75285 10.2978 9.14488 9.68979 9.14488 8.94244C9.14488 8.1951 9.75285 7.58709 10.5002 7.58709ZM7.20355 8.49365C7.9509 8.49365 8.55891 9.10166 8.55891 9.849C8.55891 10.5963 7.9509 11.2043 7.20355 11.2043C6.45621 11.2043 5.84824 10.5963 5.84824 9.849C5.84824 9.10166 6.45625 8.49365 7.20355 8.49365ZM9.55695 16.9021V12.8572C9.55695 12.6953 9.42582 12.5642 9.26398 12.5642C9.10215 12.5642 8.97102 12.6953 8.97102 12.8572V16.783C8.72047 16.7194 8.47594 16.6406 8.23848 16.5476V14.2927C8.23848 14.1308 8.10734 13.9997 7.94551 13.9997C7.78367 13.9997 7.65254 14.1308 7.65254 14.2927V16.2821C7.14355 16.0187 6.67555 15.687 6.26031 15.2993V13.6813C6.26031 13.5195 6.12918 13.3883 5.96734 13.3883C5.80551 13.3883 5.67437 13.5195 5.67437 13.6813V14.6719C5.39129 14.3237 5.14508 13.9444 4.94168 13.5401V12.9808C4.94168 12.3243 5.47574 11.7903 6.13219 11.7903H7.67551C7.66059 11.8828 7.65254 11.9776 7.65254 12.0743V12.9254C7.65254 13.0873 7.78367 13.2184 7.94551 13.2184C8.10734 13.2184 8.23848 13.0873 8.23848 12.9254V12.0743C8.23848 11.4178 8.77242 10.8837 9.42875 10.8837H11.5717C12.228 10.8837 12.762 11.4178 12.762 12.0743V14.1829C12.762 14.3447 12.8931 14.4758 13.0549 14.4758C13.2168 14.4758 13.3479 14.3447 13.3479 14.1829V12.0743C13.3479 11.9776 13.3398 11.8828 13.3249 11.7903H14.8682C15.5247 11.7903 16.0588 12.3243 16.0588 12.9808V13.5401C15.8554 13.9444 15.6091 14.3237 15.3261 14.6719V13.6813C15.3261 13.5195 15.1949 13.3883 15.0331 13.3883C14.8712 13.3883 14.7401 13.5195 14.7401 13.6813V15.2993C14.3249 15.687 13.8569 16.0187 13.3479 16.2821V15.5501C13.3479 15.3883 13.2168 15.2571 13.0549 15.2571C12.8931 15.2571 12.762 15.3883 12.762 15.5501V16.5476C12.5245 16.6406 12.28 16.7194 12.0294 16.783V12.8572C12.0294 12.6953 11.8983 12.5642 11.7364 12.5642C11.5746 12.5642 11.4435 12.6953 11.4435 12.8572V16.9021C11.1358 16.9491 10.8208 16.9735 10.5002 16.9735C10.1796 16.9735 9.86461 16.9491 9.55695 16.9021Z" fill="#E0BC85"/>
</g>
<defs>
<clipPath id="clip0_7001_376">
<rect width="20" height="20" fill="white" transform="translate(0.5 0.755615)"/>
</clipPath>
</defs>
</svg>
