<svg width="60" height="60" viewBox="0 0 60 60" fill="none" xmlns="http://www.w3.org/2000/svg">
<g clip-path="url(#clip0_5302_1298)">
<path d="M51.4847 40.7839V36.8661C51.4847 36.0853 50.8494 35.45 50.0686 35.45H31.1742V31.8881C39.4372 31.4306 46.0193 24.5653 46.0193 16.191C46.0192 7.52168 38.9655 0.46875 30.2953 0.46875C27.5481 0.46875 24.8436 1.1877 22.4745 2.54801C20.1771 3.86695 18.234 5.76035 16.8553 8.02336C16.6029 8.43797 16.7341 8.97867 17.1486 9.23121C17.5629 9.48363 18.1038 9.3525 18.3566 8.93801C20.9168 4.73555 25.3799 2.22656 30.2953 2.22656C37.9963 2.22656 44.2615 8.49105 44.2615 16.191C44.2615 20.1553 42.6007 23.7389 39.9384 26.2832C39.5869 23.3859 37.3065 22.4732 35.3297 21.9115C35.3126 21.9062 34.356 21.6466 34.2143 21.6079C34.0746 21.5702 33.9526 21.375 33.8559 21.1671C35.9392 19.7257 37.4839 17.2876 37.4839 15.1566V13.2248C37.4839 10.8161 36.7132 8.7702 35.2549 7.30852C33.9495 6 32.1931 5.26289 30.3094 5.23312C30.3 5.23301 30.2909 5.23301 30.2815 5.23312C28.3963 5.26301 26.6389 6 25.3331 7.30852C23.8745 8.77008 23.1035 10.8159 23.1035 13.225V15.1567C23.1035 17.2876 24.6483 19.7259 26.7314 21.1672C26.6345 21.3751 26.5117 21.5707 26.3696 21.6089C26.2316 21.6468 25.2759 21.9061 25.2598 21.911C23.283 22.4725 21.0023 23.3845 20.6495 26.2804C17.989 23.7362 16.3294 20.1538 16.3294 16.191C16.3294 14.9501 16.491 13.7215 16.8096 12.5395C16.9359 12.0709 16.6586 11.5886 16.1898 11.4621C15.7218 11.3357 15.2387 11.6133 15.1125 12.082C14.7536 13.413 14.5717 14.7955 14.5717 16.191C14.5717 24.5653 21.1537 31.4306 29.4166 31.8881V35.45H9.93141C9.15059 35.45 8.51531 36.0853 8.51531 36.8661V40.7839C3.74613 41.2287 0 45.2517 0 50.1347C0 55.3123 4.2143 59.5245 9.39422 59.5245C14.5741 59.5245 18.7883 55.3123 18.7883 50.1347C18.7883 45.2517 15.0423 41.2287 10.2731 40.7839V37.2079H29.4164V40.7866C27.7164 40.9432 26.1081 41.5522 24.7219 42.5745C24.3312 42.8625 24.2481 43.4128 24.5361 43.8035C24.8243 44.1941 25.3746 44.2772 25.7651 43.9891C27.0839 43.0166 28.6504 42.5025 30.2952 42.5025C34.5041 42.5025 37.9283 45.9278 37.9283 50.1379C37.9283 51.8702 37.3477 53.4688 36.3721 54.7515C35.9529 53.415 35.0995 52.2403 33.9401 51.427C34.4604 50.6961 34.7678 49.8036 34.7678 48.8401C34.7678 46.3743 32.7614 44.368 30.2952 44.368C27.8291 44.368 25.8227 46.3743 25.8227 48.8401C25.8227 49.8029 26.1296 50.6948 26.6493 51.4254C25.4888 52.2387 24.6348 53.4138 24.2153 54.7509C23.2396 53.4684 22.6589 51.87 22.6589 50.138C22.6589 48.9485 22.9225 47.8121 23.4422 46.7607C23.6572 46.3256 23.4789 45.7985 23.0438 45.5834C22.6084 45.3683 22.0814 45.5467 21.8664 45.9818C21.2348 47.2594 20.9012 48.6966 20.9012 50.138C20.9012 55.3174 25.1154 59.5311 30.2953 59.5311C35.4735 59.5311 39.6862 55.3173 39.6862 50.138C39.6862 45.2551 35.9416 41.2322 31.1742 40.7872V37.2077H49.7269V40.7838C44.9596 41.2287 41.215 45.2517 41.215 50.1346C41.215 55.3121 45.4276 59.5243 50.6058 59.5243C55.7857 59.5243 60 55.3121 60 50.1346C60 45.2517 56.2539 41.2287 51.4847 40.7839ZM9.39422 57.7668C7.67156 57.7668 6.08074 57.1931 4.80176 56.2279C4.93641 54.7465 5.78766 53.4142 7.07602 52.6602C7.75242 53.0718 8.54613 53.3091 9.39422 53.3091C10.2416 53.3091 11.0347 53.0721 11.7108 52.6611C13 53.4159 13.8518 54.7478 13.9866 56.228C12.7076 57.1931 11.1168 57.7668 9.39422 57.7668ZM6.67945 48.8368C6.67945 47.3402 7.89738 46.1225 9.39422 46.1225C10.8911 46.1225 12.1089 47.3402 12.1089 48.8368C12.1089 50.3334 10.8911 51.5511 9.39422 51.5511C7.89738 51.5511 6.67945 50.3336 6.67945 48.8368ZM17.0305 50.1347C17.0305 51.8664 16.4495 53.4645 15.4733 54.7466C15.0534 53.411 14.1994 52.2368 13.0391 51.4235C13.5594 50.6926 13.8667 49.8002 13.8667 48.8368C13.8667 46.371 11.8603 44.3647 9.39422 44.3647C6.92801 44.3647 4.92164 46.371 4.92164 48.8368C4.92164 49.7996 5.22855 50.6916 5.74816 51.4222C4.58812 52.2353 3.7343 53.4098 3.31465 54.7463C2.33871 53.4642 1.75781 51.8663 1.75781 50.1347C1.75781 45.9245 5.18344 42.4992 9.39422 42.4992C13.6049 42.4993 17.0305 45.9245 17.0305 50.1347ZM30.2953 46.1259C31.7921 46.1259 33.0101 47.3436 33.0101 48.8402C33.0101 50.3368 31.7921 51.5545 30.2953 51.5545C28.7985 51.5545 27.5807 50.3368 27.5807 48.8402C27.5807 47.3436 28.7984 46.1259 30.2953 46.1259ZM30.2953 57.7734C28.5727 57.7734 26.9817 57.1996 25.7026 56.2336C25.8364 54.7513 26.688 53.4179 27.9771 52.6635C28.6535 53.075 29.4472 53.3123 30.2953 53.3123C31.1427 53.3123 31.9358 53.0755 32.6119 52.6644C33.9002 53.4192 34.7512 54.7525 34.8848 56.2345C33.6064 57.1999 32.0167 57.7734 30.2953 57.7734ZM30.2953 6.99094C32.6668 7.03477 35.1975 8.6543 35.6537 12.0921C35.3637 11.9388 35.1621 11.733 34.9444 11.511C34.4641 11.021 33.8066 10.35 32.4468 10.6995C32.1305 10.7817 31.8598 10.8544 31.6243 10.9177C30.9204 11.1068 30.5671 11.2017 30.2952 11.2017C30.0226 11.2017 29.6723 11.1077 28.9745 10.9204C28.7364 10.8565 28.4619 10.7828 28.1382 10.6989C26.7813 10.3498 26.1231 11.0209 25.6429 11.5109C25.4252 11.733 25.2236 11.9388 24.9335 12.0921C25.3901 8.6543 27.9224 7.03477 30.2953 6.99094ZM24.8611 15.1567V13.9789C25.9395 13.7194 26.5017 13.1461 26.8985 12.7412C27.2936 12.3381 27.3259 12.305 27.699 12.401C28.0153 12.4829 28.285 12.5554 28.5187 12.6182C29.3389 12.8382 29.7907 12.9596 30.2952 12.9596C30.7991 12.9596 31.2543 12.8374 32.0804 12.6154C32.3119 12.5532 32.5778 12.4818 32.8864 12.4015C33.261 12.3052 33.2933 12.3379 33.6887 12.7413C34.0854 13.1462 34.6478 13.7195 35.726 13.9791V15.1568C35.726 17.0973 33.7443 19.5987 31.5676 20.405C30.6268 20.7543 29.96 20.7541 29.019 20.4048C26.843 19.5984 24.8611 17.0972 24.8611 15.1567ZM33.0237 22.9325L30.7044 24.2943C30.6933 24.3008 30.6823 24.3076 30.6715 24.3146C30.2968 24.5573 30.29 24.5571 29.9159 24.3146C29.9051 24.3076 29.8939 24.3008 29.8829 24.2943L27.5632 22.9322C27.8945 22.6668 28.1213 22.3218 28.2804 22.0024C28.3229 22.0192 28.3652 22.037 28.408 22.0528C29.0779 22.3015 29.6859 22.4258 30.294 22.4258C30.902 22.4258 31.5097 22.3015 32.1791 22.0529C32.222 22.037 32.2645 22.0192 32.3072 22.0023C32.4661 22.322 32.6926 22.6671 33.0237 22.9325ZM22.3587 27.0807C22.3587 24.975 23.4935 24.2818 25.4029 23.7023L28.9768 25.8008C29.4498 26.1046 29.8717 26.2564 30.2936 26.2564C30.7154 26.2564 31.1373 26.1046 31.6103 25.8008L35.1843 23.7023C37.0937 24.2818 38.2286 24.975 38.2286 27.0807V27.6769C35.9738 29.2386 33.2398 30.1554 30.2952 30.1554C27.3492 30.1554 24.6139 29.2378 22.3586 27.6746V27.0807H22.3587ZM50.6058 57.7668C48.8845 57.7668 47.2949 57.1936 46.0166 56.2288C46.1509 54.7477 47.0016 53.4155 48.2892 52.6611C48.9653 53.0721 49.7584 53.3091 50.6058 53.3091C51.4539 53.3091 52.2476 53.0718 52.924 52.6602C54.2123 53.4143 55.0636 54.7466 55.1982 56.2279C53.9193 57.1931 52.3284 57.7668 50.6058 57.7668ZM47.8911 48.8368C47.8911 47.3402 49.1089 46.1225 50.6058 46.1225C52.1026 46.1225 53.3205 47.3402 53.3205 48.8368C53.3205 50.3334 52.1026 51.5511 50.6058 51.5511C49.1089 51.5511 47.8911 50.3336 47.8911 48.8368ZM56.6852 54.7463C56.2656 53.4097 55.4118 52.2352 54.2517 51.4222C54.7714 50.6917 55.0782 49.7996 55.0782 48.8368C55.0782 46.371 53.0719 44.3647 50.6057 44.3647C48.1396 44.3647 46.1332 46.371 46.1332 48.8368C46.1332 49.8004 46.4406 50.6929 46.9609 51.4238C45.8018 52.2368 44.9488 53.411 44.5294 54.7468C43.5536 53.4647 42.9727 51.8665 42.9727 50.1347C42.9727 45.9245 46.3969 42.4992 50.6057 42.4992C54.8164 42.4992 58.2421 45.9245 58.2421 50.1347C58.2422 51.8663 57.6613 53.4642 56.6852 54.7463Z" fill="#E0BC85"/>
</g>
<defs>
<clipPath id="clip0_5302_1298">
<rect width="60" height="60" fill="white"/>
</clipPath>
</defs>
</svg>
