<svg width="21" height="21" viewBox="0 0 21 21" fill="none" xmlns="http://www.w3.org/2000/svg">
<g clip-path="url(#clip0_7001_400)">
<path d="M17.2395 7.95489C17.3168 7.95489 17.3917 7.92431 17.4471 7.86864L20.4146 4.8879C20.492 4.8102 20.5195 4.69587 20.4859 4.59149C20.4523 4.48716 20.3633 4.41024 20.2552 4.3922L18.66 4.12602L18.7592 4.02677C19.1704 3.61556 19.1704 2.94645 18.7592 2.5352C18.348 2.12403 17.6789 2.12395 17.2676 2.5352L17.1637 2.63915L16.9025 1.0022C16.8852 0.893446 16.8083 0.803602 16.7035 0.769657C16.5988 0.735673 16.4838 0.763407 16.406 0.841298L13.4138 3.83645C13.3471 3.90321 13.3166 3.99798 13.332 4.0911L13.3726 4.33802C12.1048 3.65368 10.6854 3.29446 9.23047 3.29446C7.53676 3.29446 5.89402 3.78013 4.47996 4.69892C4.34426 4.78708 4.30574 4.96852 4.39391 5.10419C4.45004 5.19056 4.54398 5.23759 4.63984 5.23759C4.69453 5.23759 4.74988 5.22227 4.79918 5.19024C6.11801 4.33333 7.65031 3.8804 9.23047 3.8804C10.7436 3.8804 12.2153 4.29669 13.4956 5.08528L13.6683 6.13458L13.1576 6.64528C12.0132 5.80673 10.6611 5.36477 9.23047 5.36477C5.55805 5.36477 2.57031 8.35251 2.57031 12.0249C2.57031 15.6974 5.55805 18.6851 9.23047 18.6851C12.9029 18.6851 15.8906 15.6974 15.8906 12.0249C15.8906 11.9621 15.8898 11.8994 15.888 11.837C15.8836 11.6752 15.7501 11.5477 15.5871 11.5521C15.4254 11.5565 15.2979 11.6913 15.3023 11.853C15.3039 11.9101 15.3047 11.9674 15.3047 12.0249C15.3047 15.3742 12.5798 18.0991 9.23051 18.0991C5.88117 18.0991 3.15625 15.3743 3.15625 12.0249C3.15625 8.6756 5.88113 5.95071 9.23047 5.95071C10.5045 5.95071 11.7101 6.33509 12.7378 7.06509L11.6673 8.1356C10.9375 7.67704 10.1005 7.43509 9.23047 7.43509C6.69961 7.43509 4.64062 9.49407 4.64062 12.0249C4.64062 12.3285 4.67051 12.6322 4.72934 12.9274C4.80004 13.3026 5.38352 13.1834 5.30398 12.8127C5.25262 12.5552 5.22656 12.2902 5.22656 12.0249C5.22656 9.81716 7.0227 8.02102 9.23047 8.02102C9.94406 8.02102 10.6321 8.20747 11.2409 8.56204L10.1006 9.70231C9.82324 9.5981 9.5316 9.54446 9.23047 9.54446C7.86273 9.54446 6.75 10.6572 6.75 12.0249C6.75 13.3927 7.86273 14.5054 9.23047 14.5054C10.5982 14.5054 11.7109 13.3927 11.7109 12.0249C11.7109 11.745 11.6644 11.4726 11.5739 11.2122L12.7219 10.0642C13.0578 10.6608 13.2344 11.3322 13.2344 12.0249C13.2344 14.2327 11.4382 16.0288 9.23047 16.0288C7.77746 16.0288 6.43852 15.2481 5.73621 13.9914C5.65727 13.8501 5.47871 13.7996 5.33758 13.8786C5.19633 13.9575 5.14582 14.136 5.22473 14.2772C6.03047 15.7191 7.56539 16.6148 9.23047 16.6148C11.7613 16.6148 13.8203 14.5558 13.8203 12.0249C13.8203 11.1759 13.5888 10.3547 13.1498 9.63618L14.2226 8.56341C14.6516 9.17966 14.958 9.86079 15.1349 10.5927C15.1673 10.7268 15.2873 10.8169 15.4195 10.8169C15.4422 10.8169 15.4654 10.8142 15.4885 10.8086C15.6458 10.7706 15.7425 10.6123 15.7045 10.455C15.5021 9.6179 15.145 8.84165 14.6426 8.14337L15.168 7.61794L16.1859 7.78544C16.9642 9.05966 17.375 10.5225 17.375 12.0249C17.375 16.5159 13.7214 20.1695 9.23047 20.1695C4.73953 20.1695 1.08594 16.5159 1.08594 12.0249C1.08594 9.72087 2.06855 7.51438 3.78184 5.97126C3.90203 5.86298 3.91172 5.67774 3.80348 5.55751C3.69512 5.43724 3.50984 5.42763 3.38969 5.53591C1.55324 7.18993 0.5 9.55509 0.5 12.0249C0.5 14.3569 1.40812 16.5493 3.05711 18.1983C4.70605 19.8473 6.89848 20.7554 9.23047 20.7554C11.5625 20.7554 13.7549 19.8473 15.4038 18.1983C17.0528 16.5493 17.9609 14.3569 17.9609 12.0249C17.9609 10.5802 17.6064 9.16946 16.931 7.90806L17.1919 7.95099C17.2078 7.9536 17.2237 7.95489 17.2395 7.95489ZM19.5989 4.87677L18.9193 5.55946L17.4685 5.31755L18.1509 4.63517L19.5989 4.87677ZM17.682 2.94958C17.7734 2.85821 17.8934 2.81251 18.0134 2.81251C18.1334 2.81251 18.2535 2.85817 18.3448 2.94958C18.5276 3.13235 18.5276 3.42974 18.3448 3.61251L9.6852 12.2722C9.50242 12.455 9.205 12.4549 9.0223 12.2722C8.83953 12.0894 8.83953 11.792 9.0223 11.6093L17.682 2.94958ZM16.4145 1.66192L16.652 3.15091L15.9688 3.83415L15.7221 2.35497L16.4145 1.66192ZM13.9346 4.14427L15.2131 2.86454L15.4596 4.34329L14.1782 5.62474L13.9346 4.14427ZM11.125 12.0249C11.125 13.0696 10.2751 13.9195 9.23047 13.9195C8.18582 13.9195 7.33594 13.0696 7.33594 12.0249C7.33594 10.9803 8.18582 10.1304 9.23047 10.1304C9.36652 10.1304 9.49996 10.1449 9.63016 10.1727L8.60797 11.1949C8.19676 11.6061 8.19676 12.2752 8.60797 12.6865C8.81359 12.8921 9.08367 12.9949 9.35379 12.9949C9.62387 12.9949 9.89395 12.8921 10.0996 12.6865L11.0952 11.6908C11.1146 11.8002 11.125 11.9117 11.125 12.0249ZM15.678 7.10806L16.9593 5.82669L18.412 6.06892L17.1383 7.34837L15.678 7.10806Z" fill="#E0BC85"/>
</g>
<defs>
<clipPath id="clip0_7001_400">
<rect width="20" height="20" fill="white" transform="translate(0.5 0.755615)"/>
</clipPath>
</defs>
</svg>
