<svg width="21" height="21" viewBox="0 0 21 21" fill="none" xmlns="http://www.w3.org/2000/svg">
<g clip-path="url(#clip0_7001_370)">
<path d="M17.6616 14.3498V13.0438C17.6616 12.7836 17.4498 12.5718 17.1895 12.5718H10.8914V11.3845C13.6457 11.232 15.8398 8.94356 15.8398 6.15212C15.8397 3.26235 13.4885 0.911377 10.5984 0.911377C9.68269 0.911377 8.78121 1.15103 7.99148 1.60446C7.2257 2.04411 6.57801 2.67524 6.11844 3.42958C6.0343 3.56778 6.07805 3.74802 6.21621 3.8322C6.3543 3.91634 6.53461 3.87263 6.61887 3.73446C7.47227 2.33364 8.95996 1.49731 10.5984 1.49731C13.1654 1.49731 15.2538 3.58548 15.2538 6.15212C15.2538 7.47356 14.7002 8.6681 13.8128 9.51618C13.6956 8.55044 12.9355 8.24618 12.2766 8.05895C12.2709 8.0572 11.952 7.97067 11.9048 7.95774C11.8582 7.9452 11.8175 7.88013 11.7853 7.81083C12.4797 7.33036 12.9946 6.51767 12.9946 5.80731V5.16341C12.9946 4.36048 12.7377 3.67853 12.2516 3.1913C11.8165 2.75513 11.231 2.50942 10.6031 2.4995C10.6 2.49946 10.597 2.49946 10.5938 2.4995C9.96543 2.50946 9.37965 2.75513 8.94437 3.1913C8.45816 3.67849 8.20117 4.36044 8.20117 5.16345V5.80735C8.20117 6.51767 8.71609 7.33044 9.41047 7.81087C9.37816 7.88017 9.33723 7.94536 9.28988 7.9581C9.24387 7.97071 8.92531 8.05716 8.91992 8.0588C8.26102 8.24595 7.50078 8.54997 7.38316 9.51524C6.49633 8.6672 5.94312 7.47306 5.94312 6.15212C5.94312 5.73849 5.99699 5.32896 6.1032 4.93497C6.14531 4.77876 6.05285 4.61798 5.8966 4.57583C5.74059 4.53368 5.57957 4.62622 5.5375 4.78247C5.41785 5.22614 5.35723 5.68696 5.35723 6.15212C5.35723 8.94356 7.55125 11.232 10.3055 11.3845V12.5718H3.81047C3.5502 12.5718 3.33844 12.7836 3.33844 13.0438V14.3498C1.74871 14.498 0.5 15.839 0.5 17.4667C0.5 19.1925 1.90477 20.5966 3.63141 20.5966C5.35805 20.5966 6.76277 19.1925 6.76277 17.4667C6.76277 15.839 5.5141 14.498 3.92438 14.3498V13.1577H10.3055V14.3507C9.73879 14.4029 9.2027 14.6059 8.74063 14.9466C8.61039 15.0426 8.5827 15.2261 8.67871 15.3563C8.77477 15.4865 8.9582 15.5142 9.08836 15.4182C9.52797 15.094 10.0501 14.9226 10.5984 14.9226C12.0014 14.9226 13.1428 16.0644 13.1428 17.4677C13.1428 18.0452 12.9492 18.5781 12.624 19.0056C12.4843 18.5601 12.1998 18.1686 11.8134 17.8975C11.9868 17.6538 12.0893 17.3563 12.0893 17.0352C12.0893 16.2132 11.4205 15.5445 10.5984 15.5445C9.77637 15.5445 9.10758 16.2132 9.10758 17.0352C9.10758 17.3561 9.20988 17.6534 9.38309 17.8969C8.99625 18.168 8.7116 18.5597 8.57176 19.0054C8.24652 18.5779 8.05297 18.0451 8.05297 17.4678C8.05297 17.0713 8.14082 16.6925 8.31406 16.342C8.38574 16.197 8.32629 16.0213 8.18125 15.9496C8.03613 15.8779 7.86047 15.9374 7.78879 16.0824C7.57828 16.5083 7.46707 16.9873 7.46707 17.4678C7.46707 19.1943 8.8718 20.5988 10.5984 20.5988C12.3245 20.5988 13.7288 19.1942 13.7288 17.4678C13.7288 15.8402 12.4805 14.4992 10.8914 14.3509V13.1577H17.0756V14.3497C15.4865 14.498 14.2383 15.839 14.2383 17.4667C14.2383 19.1925 15.6425 20.5966 17.3686 20.5966C19.0952 20.5966 20.5 19.1925 20.5 17.4667C20.5 15.839 19.2513 14.498 17.6616 14.3498ZM3.63141 20.0107C3.05719 20.0107 2.52691 19.8195 2.10059 19.4977C2.14547 19.004 2.42922 18.5599 2.85867 18.3085C3.08414 18.4457 3.34871 18.5248 3.63141 18.5248C3.91387 18.5248 4.17824 18.4458 4.40359 18.3088C4.83332 18.5604 5.11727 19.0044 5.16219 19.4978C4.73586 19.8195 4.20559 20.0107 3.63141 20.0107ZM2.72648 17.0341C2.72648 16.5352 3.13246 16.1293 3.63141 16.1293C4.13035 16.1293 4.53629 16.5352 4.53629 17.0341C4.53629 17.5329 4.13035 17.9388 3.63141 17.9388C3.13246 17.9388 2.72648 17.533 2.72648 17.0341ZM6.17684 17.4667C6.17684 18.0439 5.98316 18.5766 5.65777 19.004C5.51781 18.5588 5.23312 18.1674 4.84637 17.8963C5.0198 17.6527 5.12223 17.3552 5.12223 17.0341C5.12223 16.2121 4.45344 15.5434 3.63141 15.5434C2.80934 15.5434 2.14055 16.2121 2.14055 17.0341C2.14055 17.355 2.24285 17.6523 2.41605 17.8959C2.02937 18.1669 1.74477 18.5584 1.60488 19.0039C1.27957 18.5765 1.08594 18.0439 1.08594 17.4667C1.08594 16.0633 2.22781 14.9215 3.63141 14.9215C5.03496 14.9216 6.17684 16.0633 6.17684 17.4667ZM10.5984 16.1304C11.0974 16.1304 11.5034 16.5363 11.5034 17.0352C11.5034 17.5341 11.0974 17.94 10.5984 17.94C10.0995 17.94 9.69355 17.5341 9.69355 17.0352C9.69355 16.5363 10.0995 16.1304 10.5984 16.1304ZM10.5984 20.0129C10.0242 20.0129 9.49391 19.8216 9.06754 19.4997C9.11215 19.0056 9.39602 18.5611 9.8257 18.3096C10.0512 18.4468 10.3157 18.5259 10.5984 18.5259C10.8809 18.5259 11.1453 18.447 11.3706 18.3099C11.8001 18.5615 12.0837 19.0059 12.1283 19.5C11.7021 19.8218 11.1722 20.0129 10.5984 20.0129ZM10.5984 3.08544C11.3889 3.10005 12.2325 3.63989 12.3846 4.78583C12.2879 4.73474 12.2207 4.66614 12.1481 4.59212C11.988 4.4288 11.7689 4.20513 11.3156 4.32161C11.2102 4.34903 11.1199 4.37325 11.0414 4.39435C10.8068 4.45739 10.689 4.48903 10.5984 4.48903C10.5075 4.48903 10.3908 4.4577 10.1582 4.39524C10.0788 4.37395 9.9873 4.34938 9.87941 4.32142C9.42711 4.20505 9.2077 4.42876 9.04762 4.59208C8.97508 4.66614 8.90785 4.73474 8.81117 4.78583C8.96336 3.63989 9.80746 3.10005 10.5984 3.08544ZM8.78703 5.80735V5.41478C9.14648 5.32825 9.33391 5.13716 9.46617 5.0022C9.59785 4.86782 9.60863 4.85681 9.73301 4.8888C9.83844 4.9161 9.92832 4.94024 10.0063 4.96118C10.2796 5.03454 10.4302 5.07501 10.5984 5.07501C10.7664 5.07501 10.9181 5.03427 11.1935 4.96024C11.2706 4.93954 11.3593 4.91571 11.4621 4.88895C11.587 4.85685 11.5978 4.86774 11.7296 5.00224C11.8618 5.1372 12.0493 5.32829 12.4087 5.41481V5.80739C12.4087 6.45423 11.7481 7.28802 11.0225 7.55681C10.7089 7.67321 10.4867 7.67317 10.173 7.55673C9.44766 7.28794 8.78703 6.45419 8.78703 5.80735ZM11.5079 8.39931L10.7348 8.85321C10.7311 8.8554 10.7274 8.85767 10.7238 8.86001C10.5989 8.94091 10.5967 8.94083 10.472 8.86001C10.4684 8.85767 10.4646 8.8554 10.461 8.85321L9.68773 8.39919C9.79816 8.31071 9.87375 8.19571 9.9268 8.08927C9.94098 8.09485 9.95508 8.10079 9.96934 8.10606C10.1926 8.18896 10.3953 8.2304 10.598 8.2304C10.8007 8.2304 11.0032 8.18895 11.2264 8.1061C11.2407 8.10079 11.2548 8.09485 11.2691 8.08923C11.322 8.19579 11.3975 8.31083 11.5079 8.39931ZM7.95289 9.78204C7.95289 9.08013 8.33117 8.84907 8.96762 8.65591L10.1589 9.3554C10.3166 9.45665 10.4572 9.50728 10.5979 9.50728C10.7385 9.50728 10.8791 9.45665 11.0368 9.3554L12.2281 8.65591C12.8646 8.84907 13.2429 9.08013 13.2429 9.78204V9.98075C12.4913 10.5013 11.5799 10.8069 10.5984 10.8069C9.61641 10.8069 8.70465 10.5011 7.95285 9.98001V9.78204H7.95289ZM17.3686 20.0107C16.7948 20.0107 16.265 19.8197 15.8389 19.4981C15.8836 19.0043 16.1672 18.5603 16.5964 18.3088C16.8218 18.4458 17.0861 18.5248 17.3686 18.5248C17.6513 18.5248 17.9159 18.4457 18.1413 18.3085C18.5708 18.5599 18.8545 19.004 18.8994 19.4977C18.4731 19.8195 17.9428 20.0107 17.3686 20.0107ZM16.4637 17.0341C16.4637 16.5352 16.8696 16.1293 17.3686 16.1293C17.8675 16.1293 18.2735 16.5352 18.2735 17.0341C18.2735 17.5329 17.8675 17.9388 17.3686 17.9388C16.8696 17.9388 16.4637 17.533 16.4637 17.0341ZM19.3951 19.0039C19.2552 18.5584 18.9706 18.1668 18.5839 17.8959C18.7571 17.6524 18.8594 17.355 18.8594 17.0341C18.8594 16.2121 18.1906 15.5434 17.3686 15.5434C16.5465 15.5434 15.8777 16.2121 15.8777 17.0341C15.8777 17.3552 15.9802 17.6527 16.1536 17.8964C15.7673 18.1674 15.4829 18.5588 15.3431 19.0041C15.0179 18.5767 14.8242 18.044 14.8242 17.4667C14.8242 16.0633 15.9656 14.9215 17.3686 14.9215C18.7721 14.9215 19.914 16.0633 19.914 17.4667C19.9141 18.0439 19.7204 18.5765 19.3951 19.0039Z" fill="#E0BC85"/>
</g>
<defs>
<clipPath id="clip0_7001_370">
<rect width="20" height="20" fill="white" transform="translate(0.5 0.755615)"/>
</clipPath>
</defs>
</svg>
