<svg width="375" height="12" viewBox="0 0 375 12" fill="none" xmlns="http://www.w3.org/2000/svg">
<path d="M0.666667 6C0.666667 8.94552 3.05448 11.3333 6 11.3333C8.94552 11.3333 11.3333 8.94552 11.3333 6C11.3333 3.05448 8.94552 0.666667 6 0.666667C3.05448 0.666667 0.666667 3.05448 0.666667 6ZM363.667 6C363.667 8.94552 366.054 11.3333 369 11.3333C371.946 11.3333 374.333 8.94552 374.333 6C374.333 3.05448 371.946 0.666667 369 0.666667C366.054 0.666667 363.667 3.05448 363.667 6ZM6 7H369V5H6V7Z" fill="#F0F0F2"/>
</svg>
