<svg width="16" height="17" viewBox="0 0 16 17" fill="none" xmlns="http://www.w3.org/2000/svg">
<g clip-path="url(#clip0_7001_571)">
<path fill-rule="evenodd" clip-rule="evenodd" d="M8 16.5112C12.4183 16.5112 16 12.9295 16 8.51123C16 4.09295 12.4183 0.51123 8 0.51123C3.58172 0.51123 0 4.09295 0 8.51123C0 12.9295 3.58172 16.5112 8 16.5112Z" fill="#B6BDC7"/>
<path fill-rule="evenodd" clip-rule="evenodd" d="M8.73578 10.9336C10.4973 10.9336 11.6922 9.29435 11.6922 7.10002C11.6922 5.44124 10.3155 3.89575 8.22359 3.89575C5.6203 3.89575 4.30762 5.80114 4.30762 7.39C4.30762 8.35208 4.66416 9.208 5.4297 9.52701C5.55511 9.57928 5.66749 9.5287 5.70401 9.38703C5.72899 9.28882 5.78938 9.04108 5.81561 8.93806C5.85236 8.79776 5.83823 8.74861 5.73692 8.62627C5.5164 8.36026 5.37567 8.01656 5.37567 7.52918C5.37567 6.11574 6.41112 4.85037 8.0732 4.85037C9.5442 4.85037 10.353 5.76795 10.353 6.99395C10.353 8.60671 9.65391 9.96788 8.61578 9.96788C8.04233 9.96788 7.61362 9.48396 7.7509 8.89052C7.91527 8.18195 8.23474 7.41694 8.23474 6.90544C8.23474 6.44781 7.99403 6.06563 7.49566 6.06563C6.90957 6.06563 6.43892 6.68472 6.43892 7.51363C6.43892 8.04157 6.61397 8.39874 6.61397 8.39874C6.61397 8.39874 6.01422 10.9926 5.9089 11.4467C5.81341 11.8602 5.79912 12.3147 5.81254 12.6988C5.85268 13.0434 6.18644 13.324 6.47599 12.946C6.67955 12.6138 6.89842 12.1944 7.01167 11.7739C7.0792 11.5252 7.39726 10.2365 7.39726 10.2365C7.58786 10.6072 8.14427 10.9336 8.73578 10.9336Z" fill="#272A35"/>
</g>
<defs>
<clipPath id="clip0_7001_571">
<rect width="16" height="16" fill="white" transform="translate(0 0.51123)"/>
</clipPath>
</defs>
</svg>
