<svg width="32" height="32" viewBox="0 0 32 32" fill="none" xmlns="http://www.w3.org/2000/svg">
<g clip-path="url(#clip0_7001_68)">
<path fill-rule="evenodd" clip-rule="evenodd" d="M16 32C24.8366 32 32 24.8366 32 16C32 7.16344 24.8366 0 16 0C7.16344 0 0 7.16344 0 16C0 24.8366 7.16344 32 16 32Z" fill="#71757F"/>
<path fill-rule="evenodd" clip-rule="evenodd" d="M17.4718 20.8448C20.9948 20.8448 23.3847 17.5662 23.3847 13.1776C23.3847 9.86003 20.6312 6.76904 16.4474 6.76904C11.2408 6.76904 8.61548 10.5798 8.61548 13.7575C8.61548 15.6817 9.32856 17.3935 10.8596 18.0316C11.1105 18.1361 11.3352 18.0349 11.4083 17.7516C11.4582 17.5552 11.579 17.0597 11.6315 16.8537C11.705 16.5731 11.6767 16.4748 11.4741 16.2301C11.033 15.6981 10.7516 15.0107 10.7516 14.0359C10.7516 11.209 12.8225 8.67828 16.1466 8.67828C19.0886 8.67828 20.7063 10.5134 20.7063 12.9654C20.7063 16.191 19.3081 18.9133 17.2318 18.9133C16.0849 18.9133 15.2275 17.9455 15.502 16.7586C15.8308 15.3414 16.4697 13.8114 16.4697 12.7884C16.4697 11.8732 15.9883 11.1088 14.9916 11.1088C13.8194 11.1088 12.8781 12.347 12.8781 14.0048C12.8781 15.0607 13.2282 15.775 13.2282 15.775C13.2282 15.775 12.0287 20.9627 11.8181 21.8709C11.6271 22.6979 11.5985 23.6069 11.6253 24.3752C11.7056 25.0643 12.3731 25.6255 12.9522 24.8695C13.3593 24.2052 13.7971 23.3663 14.0236 22.5254C14.1587 22.0279 14.7948 19.4505 14.7948 19.4505C15.176 20.1919 16.2888 20.8448 17.4718 20.8448Z" fill="#272A35"/>
</g>
<defs>
<clipPath id="clip0_7001_68">
<rect width="32" height="32" fill="white"/>
</clipPath>
</defs>
</svg>
