<svg width="60" height="60" viewBox="0 0 60 60" fill="none" xmlns="http://www.w3.org/2000/svg">
<g clip-path="url(#clip0_3190_1502)">
<path d="M53.2174 10.6832C48.9042 5.41909 42.8832 1.74573 36.2639 0.339245C35.9758 0.277956 35.6756 0.350026 35.4467 0.535534C35.2179 0.720807 35.085 0.999479 35.085 1.29397V11.1381C35.085 11.6773 35.522 12.1141 36.061 12.1141C36.6001 12.1141 37.0371 11.6773 37.0371 11.1381V2.52655C42.7583 4.00827 47.9321 7.31272 51.7075 11.9205C55.7963 16.9106 58.0481 23.2185 58.0481 29.6823C58.0481 35.8816 56.0655 41.7576 52.3149 46.6752C51.988 47.1039 52.0705 47.7163 52.499 48.0433C52.6757 48.1782 52.8839 48.2433 53.0902 48.2433C53.3843 48.2433 53.675 48.111 53.8671 47.8591C57.8793 42.5983 60.0001 36.3129 60.0001 29.6822C60.0001 22.7686 57.5912 16.0214 53.2174 10.6832Z" fill="#E0BC85"/>
<path d="M51.1959 49.5314C50.8152 49.1498 50.1972 49.1494 49.8157 49.5302C44.5097 54.8277 37.4885 57.7305 30.0039 57.7303C29.8696 57.7303 29.7341 57.7295 29.5993 57.7276C22.2043 57.6244 15.2569 54.6489 10.037 49.3488C4.81747 44.0492 1.94626 37.057 1.95212 29.6598C1.95681 23.7587 3.77321 18.1148 7.20505 13.3382C7.51958 12.9003 7.41962 12.2905 6.98181 11.976C6.54399 11.6613 5.93415 11.7614 5.61962 12.1992C1.94825 17.3093 0.00493128 23.3467 9.40357e-06 29.6583C-0.00620153 37.5719 3.06446 45.0512 8.64622 50.7186C14.2288 56.3867 21.6605 59.5691 29.5722 59.6794C29.7167 59.6814 29.8606 59.6824 30.0047 59.6824C38.0092 59.6823 45.52 56.5775 51.1947 50.9116C51.5763 50.5309 51.5768 49.9128 51.1959 49.5314Z" fill="#E0BC85"/>
<path d="M44.2821 24.869C43.8977 24.2002 43.2077 23.801 42.4362 23.801H37.2137C37.1161 23.801 37.0369 23.7218 37.0369 23.6241V15.0425C37.0369 14.5033 36.5999 14.0665 36.0608 14.0665C35.5218 14.0665 35.0848 14.5033 35.0848 15.0425V23.6241C35.0848 24.798 36.0397 25.7531 37.2137 25.7531H42.4362C42.5042 25.7531 42.5558 25.783 42.5896 25.8418C42.6233 25.9006 42.6233 25.9603 42.5891 26.0189L30.1531 47.3647C30.1191 47.4228 30.0676 47.4525 30.0001 47.4525C29.9327 47.4525 29.8813 47.4229 29.8473 47.3647L17.411 26.0189C17.3768 25.9602 17.3767 25.9006 17.4106 25.8418C17.4444 25.7829 17.4959 25.7531 17.5638 25.7531H22.7863C23.9602 25.7531 24.9152 24.7981 24.9152 23.6241V1.29407C24.9152 0.999575 24.7822 0.720904 24.5535 0.53563C24.3247 0.350122 24.0244 0.277818 23.7363 0.339341C17.7818 1.60438 12.4099 4.62512 8.20126 9.07473C7.83084 9.46637 7.84806 10.0841 8.2397 10.4546C8.63146 10.825 9.24915 10.8077 9.61958 10.4161C13.2751 6.55133 17.8678 3.83973 22.9633 2.52583V23.624C22.9633 23.7216 22.884 23.8009 22.7864 23.8009H17.564C16.7925 23.8009 16.1025 24.2001 15.718 24.8689C15.3335 25.5378 15.336 26.3349 15.7242 27.0015L28.1605 48.3473C28.5463 49.0093 29.2338 49.4045 30 49.4045C30.7662 49.4045 31.4538 49.0093 31.8396 48.3473L44.2759 27.0015C44.6643 26.335 44.6666 25.5378 44.2821 24.869Z" fill="#E0BC85"/>
</g>
<defs>
<clipPath id="clip0_3190_1502">
<rect width="60" height="60" fill="white"/>
</clipPath>
</defs>
</svg>
