<svg width="16" height="16" viewBox="0 0 16 16" fill="none" xmlns="http://www.w3.org/2000/svg">
<g clip-path="url(#clip0_7001_307)">
<path d="M14.1913 2.84855C13.0411 1.4448 11.4355 0.465235 9.67033 0.0901723C9.59352 0.0738285 9.51346 0.0930473 9.45243 0.142516C9.39139 0.191922 9.35596 0.266235 9.35596 0.344766V2.96986C9.35596 3.11364 9.47249 3.23014 9.61624 3.23014C9.75999 3.23014 9.87652 3.11364 9.87652 2.96986V0.673453C11.4022 1.06858 12.7819 1.94977 13.7886 3.17852C14.879 4.5092 15.4795 6.1913 15.4795 7.91498C15.4795 9.56814 14.9508 11.1351 13.9506 12.4464C13.8634 12.5607 13.8854 12.724 13.9997 12.8113C14.0468 12.8472 14.1023 12.8646 14.1574 12.8646C14.2358 12.8646 14.3133 12.8293 14.3645 12.7621C15.4345 11.3593 16 9.68314 16 7.91495C16 6.07133 15.3576 4.27208 14.1913 2.84855Z" fill="#E0BC85"/>
<path d="M13.6523 13.2085C13.5507 13.1067 13.3859 13.1066 13.2842 13.2082C11.8693 14.6208 9.99694 15.3949 8.00103 15.3949C7.96522 15.3949 7.9291 15.3946 7.89316 15.3941C5.92116 15.3666 4.0685 14.5731 2.67653 13.1598C1.28466 11.7466 0.519003 9.88198 0.520565 7.90939C0.521815 6.33577 1.00619 4.83074 1.92135 3.55695C2.00522 3.4402 1.97856 3.27758 1.86181 3.1937C1.74506 3.1098 1.58244 3.13649 1.49856 3.25324C0.519534 4.61592 0.00131501 6.22589 2.50762e-06 7.90898C-0.00165374 10.0193 0.81719 12.0138 2.30566 13.5251C3.79435 15.0366 5.77613 15.8852 7.88591 15.9146C7.92444 15.9151 7.96282 15.9154 8.00125 15.9154C10.1358 15.9154 12.1387 15.0875 13.6519 13.5765C13.7537 13.475 13.7538 13.3102 13.6523 13.2085Z" fill="#E0BC85"/>
<path d="M11.8085 6.63145C11.706 6.4531 11.522 6.34664 11.3162 6.34664H9.92356C9.89753 6.34664 9.87641 6.32551 9.87641 6.29948V4.01104C9.87641 3.86726 9.75987 3.75076 9.61612 3.75076C9.47237 3.75076 9.35584 3.86726 9.35584 4.01104V6.29948C9.35584 6.61251 9.6105 6.8672 9.92356 6.8672H11.3162C11.3343 6.8672 11.3481 6.87517 11.3571 6.89085C11.3661 6.90654 11.3661 6.92245 11.357 6.93807L8.04072 12.6303C8.03166 12.6458 8.01794 12.6537 7.99994 12.6537C7.98197 12.6537 7.96825 12.6458 7.95919 12.6303L4.64284 6.93807C4.63372 6.92242 4.63369 6.90654 4.64272 6.89085C4.65175 6.87514 4.66547 6.8672 4.68359 6.8672H6.07625C6.38928 6.8672 6.64397 6.61254 6.64397 6.29948V0.344792C6.64397 0.26626 6.6085 0.191948 6.5475 0.142542C6.4865 0.093073 6.40641 0.0737918 6.32959 0.090198C4.74172 0.427542 3.30922 1.23307 2.18691 2.41964C2.08813 2.52407 2.09272 2.68879 2.19716 2.7876C2.30163 2.88639 2.46634 2.88176 2.56512 2.77732C3.53994 1.74673 4.76466 1.02364 6.12344 0.673261V6.29945C6.12344 6.32548 6.10231 6.3466 6.07628 6.3466H4.68362C4.47791 6.3466 4.29391 6.45307 4.19138 6.63142C4.08884 6.80979 4.0895 7.02235 4.19303 7.2001L7.50937 12.8923C7.61225 13.0689 7.79559 13.1742 7.99991 13.1742C8.20422 13.1742 8.38759 13.0689 8.49047 12.8923L11.8068 7.2001C11.9104 7.02239 11.911 6.80979 11.8085 6.63145Z" fill="#E0BC85"/>
</g>
<defs>
<clipPath id="clip0_7001_307">
<rect width="16" height="16" fill="white"/>
</clipPath>
</defs>
</svg>
