<svg width="16" height="17" viewBox="0 0 16 17" fill="none" xmlns="http://www.w3.org/2000/svg">
<g clip-path="url(#clip0_7001_552)">
<path d="M5.01709 9.32164H5.53209V11.9241H6.03009V9.32164H6.54509V8.87964H5.01709V9.32164Z" fill="#B6BDC7"/>
<path d="M7.55829 11.3838C7.51629 11.4323 7.47129 11.4723 7.42079 11.5038C7.37129 11.5358 7.32979 11.5513 7.29729 11.5513C7.25629 11.5513 7.22579 11.5393 7.20629 11.5158C7.18829 11.4918 7.17929 11.4538 7.17929 11.4003V9.67727H6.73779V11.5553C6.73779 11.6893 6.76429 11.7888 6.81529 11.8558C6.86779 11.9233 6.94379 11.9558 7.04629 11.9558C7.12879 11.9558 7.21429 11.9323 7.30329 11.8843C7.39179 11.8373 7.47629 11.7673 7.55829 11.6763V11.9228H7.99979V9.67627H7.55829V11.3838Z" fill="#B6BDC7"/>
<path d="M9.17203 9.65014C9.10353 9.65014 9.03553 9.66764 8.96803 9.70364C8.90153 9.73864 8.83903 9.79114 8.77853 9.86014V8.87964H8.33203V11.9246H8.77853V11.7521C8.83603 11.8211 8.89953 11.8716 8.96703 11.9041C9.03453 11.9371 9.11103 11.9526 9.19803 11.9526C9.32903 11.9526 9.43003 11.9111 9.49803 11.8261C9.56703 11.7411 9.60203 11.6196 9.60203 11.4606V10.2141C9.60203 10.0301 9.56603 9.89014 9.49103 9.79414C9.41853 9.69814 9.31203 9.65014 9.17203 9.65014ZM9.14853 11.3976C9.14853 11.4701 9.13503 11.5211 9.10953 11.5521C9.08403 11.5841 9.04453 11.5996 8.99053 11.5996C8.95303 11.5996 8.91803 11.5916 8.88403 11.5751C8.85003 11.5596 8.81503 11.5316 8.77903 11.4961V10.0966C8.80953 10.0656 8.83953 10.0426 8.87003 10.0281C8.90103 10.0131 8.93153 10.0066 8.96353 10.0066C9.02253 10.0066 9.06903 10.0261 9.10153 10.0651C9.13303 10.1041 9.14853 10.1621 9.14853 10.2376V11.3976Z" fill="#B6BDC7"/>
<path d="M7.93596 6.59064C8.00346 6.59064 8.05646 6.57164 8.09646 6.53464C8.13596 6.49614 8.15596 6.44364 8.15596 6.37814V5.02914C8.15596 4.97514 8.13596 4.93114 8.09496 4.89764C8.05446 4.86464 8.00146 4.84814 7.93596 4.84814C7.87496 4.84814 7.82546 4.86414 7.78796 4.89764C7.75046 4.93114 7.73096 4.97514 7.73096 5.02914V6.37714C7.73096 6.44464 7.74946 6.49664 7.78446 6.53464C7.81946 6.57214 7.86946 6.59064 7.93596 6.59064Z" fill="#B6BDC7"/>
<path d="M8 0.51123C3.582 0.51123 0 4.09273 0 8.51123C0 12.9297 3.582 16.5112 8 16.5112C12.418 16.5112 16 12.9292 16 8.51123C16 4.09323 12.418 0.51123 8 0.51123ZM9.066 4.48223H9.5625V6.37923C9.5625 6.43773 9.574 6.48023 9.5945 6.50623C9.6145 6.53273 9.649 6.54573 9.6955 6.54573C9.7315 6.54573 9.778 6.52823 9.834 6.49373C9.8895 6.45923 9.941 6.41473 9.987 6.36023V4.48223H10.4845V6.95673H9.987V6.68373C9.896 6.78423 9.801 6.86173 9.701 6.91373C9.602 6.96623 9.506 6.99273 9.412 6.99273C9.2965 6.99273 9.2105 6.95573 9.152 6.88223C9.094 6.80873 9.065 6.69823 9.065 6.55023V4.48223H9.066ZM7.219 5.04823C7.219 4.85623 7.2855 4.70373 7.42 4.59023C7.5535 4.47673 7.734 4.41973 7.9595 4.41973C8.165 4.41973 8.334 4.47973 8.4655 4.59973C8.5965 4.71923 8.6625 4.87373 8.6625 5.06223V6.34073C8.6625 6.55223 8.598 6.71823 8.4695 6.83873C8.3395 6.95923 8.163 7.01923 7.9365 7.01923C7.7195 7.01923 7.545 6.95723 7.414 6.83323C7.284 6.70873 7.219 6.54123 7.219 6.33123V5.04823ZM5.8645 3.60223L6.228 4.94273H6.263L6.6085 3.60223H7.178L6.5265 5.56473V6.95673H5.9665V5.62773L5.3 3.60273C5.2995 3.60223 5.8645 3.60223 5.8645 3.60223ZM11.418 12.5962C11.055 12.9582 7.9985 12.9662 7.9985 12.9662C7.9985 12.9662 4.9415 12.9587 4.578 12.5962C4.214 12.2327 4.2135 10.4447 4.2135 10.4312C4.2135 10.4207 4.2145 8.62923 4.578 8.26623C4.942 7.90373 7.9985 7.89923 7.9985 7.89973C7.9985 7.89973 11.0555 7.90423 11.418 8.26673C11.782 8.63023 11.7865 10.4212 11.7865 10.4317C11.7865 10.4312 11.7835 12.2317 11.418 12.5962Z" fill="#B6BDC7"/>
<path d="M10.5055 9.62231C10.3075 9.62231 10.1465 9.68331 10.022 9.80631C9.89697 9.92931 9.83447 10.0878 9.83447 10.2828V11.2913C9.83447 11.5083 9.89247 11.6778 10.0055 11.8013C10.119 11.9253 10.2755 11.9863 10.4725 11.9863C10.6925 11.9863 10.858 11.9283 10.968 11.8128C11.0795 11.6953 11.134 11.5223 11.134 11.2913V11.1763H10.68V11.2788C10.68 11.4113 10.6645 11.4968 10.6355 11.5353C10.6065 11.5743 10.5555 11.5933 10.482 11.5933C10.411 11.5933 10.362 11.5713 10.332 11.5253C10.3035 11.4793 10.2885 11.3973 10.2885 11.2788V10.8563H11.133V10.2833C11.133 10.0703 11.079 9.90681 10.971 9.79331C10.8635 9.67931 10.7075 9.62231 10.5055 9.62231ZM10.68 10.5053H10.2895V10.2788C10.2895 10.1848 10.3045 10.1173 10.335 10.0778C10.366 10.0358 10.4165 10.0163 10.487 10.0163C10.554 10.0163 10.604 10.0358 10.6335 10.0778C10.665 10.1173 10.6805 10.1848 10.6805 10.2788L10.68 10.5053Z" fill="#B6BDC7"/>
</g>
<defs>
<clipPath id="clip0_7001_552">
<rect width="16" height="16" fill="white" transform="translate(0 0.51123)"/>
</clipPath>
</defs>
</svg>
