<svg width="32" height="32" viewBox="0 0 32 32" fill="none" xmlns="http://www.w3.org/2000/svg">
<g clip-path="url(#clip0_7001_51)">
<path d="M10.0339 17.6208H11.0639V22.8258H12.0599V17.6208H13.0899V16.7368H10.0339V17.6208Z" fill="#71757F"/>
<path d="M15.1171 21.7451C15.0331 21.8421 14.9431 21.9221 14.8421 21.9851C14.7431 22.0491 14.6601 22.0801 14.5951 22.0801C14.5131 22.0801 14.4521 22.0561 14.4131 22.0091C14.3771 21.9611 14.3591 21.8851 14.3591 21.7781V18.3321H13.4761V22.0881C13.4761 22.3561 13.5291 22.5551 13.6311 22.6891C13.7361 22.8241 13.8881 22.8891 14.0931 22.8891C14.2581 22.8891 14.4291 22.8421 14.6071 22.7461C14.7841 22.6521 14.9531 22.5121 15.1171 22.3301V22.8231H16.0001V18.3301H15.1171V21.7451Z" fill="#71757F"/>
<path d="M18.3441 18.2778C18.2071 18.2778 18.0711 18.3128 17.9361 18.3848C17.8031 18.4548 17.6781 18.5598 17.5571 18.6978V16.7368H16.6641V22.8268H17.5571V22.4818C17.6721 22.6198 17.7991 22.7208 17.9341 22.7858C18.0691 22.8518 18.2221 22.8828 18.3961 22.8828C18.6581 22.8828 18.8601 22.7998 18.9961 22.6298C19.1341 22.4598 19.2041 22.2168 19.2041 21.8988V19.4058C19.2041 19.0378 19.1321 18.7578 18.9821 18.5658C18.8371 18.3738 18.6241 18.2778 18.3441 18.2778ZM18.2971 21.7728C18.2971 21.9178 18.2701 22.0198 18.2191 22.0818C18.1681 22.1458 18.0891 22.1768 17.9811 22.1768C17.9061 22.1768 17.8361 22.1608 17.7681 22.1278C17.7001 22.0968 17.6301 22.0408 17.5581 21.9698V19.1708C17.6191 19.1088 17.6791 19.0628 17.7401 19.0338C17.8021 19.0038 17.8631 18.9908 17.9271 18.9908C18.0451 18.9908 18.1381 19.0298 18.2031 19.1078C18.2661 19.1858 18.2971 19.3018 18.2971 19.4528V21.7728Z" fill="#71757F"/>
<path d="M15.8719 12.1588C16.0069 12.1588 16.1129 12.1208 16.1929 12.0468C16.2719 11.9698 16.3119 11.8648 16.3119 11.7338V9.03583C16.3119 8.92783 16.2719 8.83983 16.1899 8.77283C16.1089 8.70683 16.0029 8.67383 15.8719 8.67383C15.7499 8.67383 15.6509 8.70583 15.5759 8.77283C15.5009 8.83983 15.4619 8.92783 15.4619 9.03583V11.7318C15.4619 11.8668 15.4989 11.9708 15.5689 12.0468C15.6389 12.1218 15.7389 12.1588 15.8719 12.1588Z" fill="#71757F"/>
<path d="M16 0C7.164 0 0 7.163 0 16C0 24.837 7.164 32 16 32C24.836 32 32 24.836 32 16C32 7.164 24.836 0 16 0ZM18.132 7.942H19.125V11.736C19.125 11.853 19.148 11.938 19.189 11.99C19.229 12.043 19.298 12.069 19.391 12.069C19.463 12.069 19.556 12.034 19.668 11.965C19.779 11.896 19.882 11.807 19.974 11.698V7.942H20.969V12.891H19.974V12.345C19.792 12.546 19.602 12.701 19.402 12.805C19.204 12.91 19.012 12.963 18.824 12.963C18.593 12.963 18.421 12.889 18.304 12.742C18.188 12.595 18.13 12.374 18.13 12.078V7.942H18.132ZM14.438 9.074C14.438 8.69 14.571 8.385 14.84 8.158C15.107 7.931 15.468 7.817 15.919 7.817C16.33 7.817 16.668 7.937 16.931 8.177C17.193 8.416 17.325 8.725 17.325 9.102V11.659C17.325 12.082 17.196 12.414 16.939 12.655C16.679 12.896 16.326 13.016 15.873 13.016C15.439 13.016 15.09 12.892 14.828 12.644C14.568 12.395 14.438 12.06 14.438 11.64V9.074ZM11.729 6.182L12.456 8.863H12.526L13.217 6.182H14.356L13.053 10.107V12.891H11.933V10.233L10.6 6.183C10.599 6.182 11.729 6.182 11.729 6.182ZM22.836 24.17C22.11 24.894 15.997 24.91 15.997 24.91C15.997 24.91 9.883 24.895 9.156 24.17C8.428 23.443 8.427 19.867 8.427 19.84C8.427 19.819 8.429 16.236 9.156 15.51C9.884 14.785 15.997 14.776 15.997 14.777C15.997 14.777 22.111 14.786 22.836 15.511C23.564 16.238 23.573 19.82 23.573 19.841C23.573 19.84 23.567 23.441 22.836 24.17Z" fill="#71757F"/>
<path d="M21.0109 18.2222C20.6149 18.2222 20.2929 18.3442 20.0439 18.5902C19.7939 18.8362 19.6689 19.1532 19.6689 19.5432V21.5602C19.6689 21.9942 19.7849 22.3332 20.0109 22.5802C20.2379 22.8282 20.5509 22.9502 20.9449 22.9502C21.3849 22.9502 21.7159 22.8342 21.9359 22.6032C22.1589 22.3682 22.2679 22.0222 22.2679 21.5602V21.3302H21.3599V21.5352C21.3599 21.8002 21.3289 21.9712 21.2709 22.0482C21.2129 22.1262 21.1109 22.1642 20.9639 22.1642C20.8219 22.1642 20.7239 22.1202 20.6639 22.0282C20.6069 21.9362 20.5769 21.7722 20.5769 21.5352V20.6902H22.2659V19.5442C22.2659 19.1182 22.1579 18.7912 21.9419 18.5642C21.7269 18.3362 21.4149 18.2222 21.0109 18.2222ZM21.3599 19.9882H20.5789V19.5352C20.5789 19.3472 20.6089 19.2122 20.6699 19.1332C20.7319 19.0492 20.8329 19.0102 20.9739 19.0102C21.1079 19.0102 21.2079 19.0492 21.2669 19.1332C21.3299 19.2122 21.3609 19.3472 21.3609 19.5352L21.3599 19.9882Z" fill="#71757F"/>
</g>
<defs>
<clipPath id="clip0_7001_51">
<rect width="32" height="32" fill="white"/>
</clipPath>
</defs>
</svg>
