<svg width="16" height="17" viewBox="0 0 16 17" fill="none" xmlns="http://www.w3.org/2000/svg">
<g clip-path="url(#clip0_7001_576)">
<path d="M8 16.5112C12.4193 16.5112 16 12.9306 16 8.51123C16 4.0919 12.4193 0.51123 8 0.51123C3.58067 0.51123 0 4.0919 0 8.51123C0 12.9306 3.58067 16.5112 8 16.5112ZM3.66067 8.3379L11.374 5.3639C11.732 5.23456 12.0447 5.45123 11.9287 5.99256L11.9293 5.9919L10.616 12.1792C10.5187 12.6179 10.258 12.7246 9.89333 12.5179L7.89333 11.0439L6.92867 11.9732C6.822 12.0799 6.732 12.1699 6.52533 12.1699L6.66733 10.1346L10.374 6.7859C10.5353 6.6439 10.338 6.5639 10.1253 6.70523L5.54467 9.58923L3.57 8.97323C3.14133 8.83723 3.132 8.54456 3.66067 8.3379Z" fill="#B6BDC7"/>
</g>
<defs>
<clipPath id="clip0_7001_576">
<rect width="16" height="16" fill="white" transform="translate(0 0.51123)"/>
</clipPath>
</defs>
</svg>
