<svg width="16" height="17" viewBox="0 0 16 17" fill="none" xmlns="http://www.w3.org/2000/svg">
<g clip-path="url(#clip0_7001_567)">
<path d="M8 0.51123C3.58241 0.51123 0 4.09364 0 8.51123C0 12.9288 3.58241 16.5112 8 16.5112C12.4176 16.5112 16 12.9288 16 8.51123C16 4.09364 12.4176 0.51123 8 0.51123ZM12.0134 6.63226V7.71548C11.5027 7.71567 11.0064 7.61557 10.5383 7.41811C10.2373 7.29104 9.95694 7.12732 9.70047 6.92948L9.70816 10.2636C9.70494 11.0144 9.40791 11.7198 8.87031 12.2512C8.43281 12.6837 7.87844 12.9587 7.27756 13.0477C7.13638 13.0686 6.99269 13.0794 6.84737 13.0794C6.20416 13.0794 5.5935 12.871 5.09397 12.4865C4.99997 12.4142 4.91006 12.3357 4.82447 12.2512C4.24184 11.6753 3.94141 10.8949 3.992 10.0739C4.03059 9.44889 4.28081 8.85286 4.69794 8.3857C5.24981 7.76751 6.02187 7.42439 6.84737 7.42439C6.99269 7.42439 7.13638 7.43529 7.27756 7.4562V7.8567V8.97082C7.14369 8.92667 7.00072 8.90239 6.85184 8.90239C6.09766 8.90239 5.4875 9.5177 5.49878 10.2724C5.50594 10.7554 5.76972 11.1775 6.15878 11.4102C6.34162 11.5195 6.55197 11.5873 6.77644 11.5996C6.95231 11.6093 7.12119 11.5848 7.27756 11.5331C7.81641 11.3551 8.20512 10.849 8.20512 10.2521L8.20691 8.01936V3.94311H9.69866C9.70009 4.09092 9.71509 4.23514 9.74297 4.37489C9.85556 4.94054 10.1744 5.43129 10.6182 5.76586C11.0051 6.0577 11.4869 6.2307 12.0091 6.2307C12.0095 6.2307 12.0138 6.2307 12.0134 6.23036V6.63226H12.0134Z" fill="#B6BDC7"/>
</g>
<defs>
<clipPath id="clip0_7001_567">
<rect width="16" height="16" fill="white" transform="translate(0 0.51123)"/>
</clipPath>
</defs>
</svg>
