<svg width="48" height="48" viewBox="0 0 48 48" fill="none" xmlns="http://www.w3.org/2000/svg">
<path opacity="0.6" d="M6.61603 0H6.9676C8.33166 0.0515625 9.53635 0.499687 10.6773 1.15219C21.3498 7.26156 31.866 13.2838 42.226 19.2188C43.6135 20.0138 45.0038 21.2128 45.4988 22.7925C46.3201 25.4119 44.3767 27.5428 42.2738 28.7475C31.8407 34.7306 21.2748 40.7844 10.576 46.9087C9.48103 47.535 8.24916 47.9541 6.95541 48H6.60853C6.44728 47.9644 6.28416 47.9328 6.11916 47.9053C5.47791 47.7997 4.93291 47.5872 4.48416 47.2678C2.85291 46.1072 2.30447 44.0316 2.30354 42.1312C2.29791 30.0731 2.29791 18.0166 2.30354 5.96156C2.30416 5.39906 2.35822 4.81063 2.46572 4.19625C2.5701 3.59875 2.75572 3.02813 3.0226 2.48438C3.75572 0.99 4.95354 0.161875 6.61603 0Z" fill="#FBFFFC"/>
</svg>
