<svg width="15" height="15" viewBox="0 0 15 15" fill="none" xmlns="http://www.w3.org/2000/svg">
<g clip-path="url(#clip0_7001_262)">
<path opacity="0.6" d="M2.0301 0.0634766H2.13459C2.54002 0.0788021 2.89808 0.211995 3.23719 0.405932C6.40929 2.22177 9.53496 4.0117 12.6142 5.77572C13.0266 6.01201 13.4398 6.3684 13.5869 6.83791C13.831 7.61645 13.2534 8.24981 12.6284 8.60787C9.52743 10.3862 6.387 12.1855 3.20709 14.0058C2.88164 14.1919 2.5155 14.3165 2.13096 14.3301H2.02787C1.97994 14.3196 1.93145 14.3102 1.88241 14.302C1.69182 14.2706 1.52983 14.2074 1.39645 14.1125C0.911611 13.7676 0.748603 13.1506 0.748324 12.5858C0.746652 9.00188 0.746652 5.4184 0.748324 1.83539C0.74851 1.6682 0.764579 1.4933 0.79653 1.3107C0.827553 1.13311 0.882724 0.963503 0.962046 0.801888C1.17995 0.357727 1.53596 0.111589 2.0301 0.0634766Z" fill="#FBFFFC"/>
</g>
<defs>
<clipPath id="clip0_7001_262">
<rect width="14.2667" height="14.2667" fill="white" transform="translate(0.0634766 0.0634766)"/>
</clipPath>
</defs>
</svg>
