<svg width="268" height="12" viewBox="0 0 268 12" fill="none" xmlns="http://www.w3.org/2000/svg">
<path d="M0.666667 6C0.666667 8.94552 3.05448 11.3333 6 11.3333C8.94552 11.3333 11.3333 8.94552 11.3333 6C11.3333 3.05448 8.94552 0.666667 6 0.666667C3.05448 0.666667 0.666667 3.05448 0.666667 6ZM256.667 6C256.667 8.94552 259.054 11.3333 262 11.3333C264.946 11.3333 267.333 8.94552 267.333 6C267.333 3.05448 264.946 0.666667 262 0.666667C259.054 0.666667 256.667 3.05448 256.667 6ZM6 7H262V5H6V7Z" fill="#F0F0F2"/>
</svg>
