<svg width="87" height="5" viewBox="0 0 87 5" fill="none" xmlns="http://www.w3.org/2000/svg">
<path d="M0.414815 2.5C0.414815 3.37547 1.12453 4.08519 2 4.08519C2.87547 4.08519 3.58519 3.37547 3.58519 2.5C3.58519 1.62453 2.87547 0.914815 2 0.914815C1.12453 0.914815 0.414815 1.62453 0.414815 2.5ZM83.4148 2.5C83.4148 3.37547 84.1245 4.08519 85 4.08519C85.8755 4.08519 86.5852 3.37547 86.5852 2.5C86.5852 1.62453 85.8755 0.914815 85 0.914815C84.1245 0.914815 83.4148 1.62453 83.4148 2.5ZM2 2.79722H85V2.20278H2V2.79722Z" fill="#F0F0F2"/>
</svg>
